<?xml version="1.0" encoding="UTF-8" standalone="no"?>
<!-- Created with Inkscape (http://www.inkscape.org/) -->

<svg
   xmlns:dc="http://purl.org/dc/elements/1.1/"
   xmlns:cc="http://creativecommons.org/ns#"
   xmlns:rdf="http://www.w3.org/1999/02/22-rdf-syntax-ns#"
   xmlns:svg="http://www.w3.org/2000/svg"
   xmlns="http://www.w3.org/2000/svg"
   version="1.1"
   width="353.09"
   height="350.35999"
   viewBox="0 0 282.472 280.28798"
   id="svg2"
   style="fill-rule:evenodd">
  <metadata
     id="metadata278">
    <rdf:RDF>
      <cc:Work
         rdf:about="">
        <dc:format>image/svg+xml</dc:format>
        <dc:type
           rdf:resource="http://purl.org/dc/dcmitype/StillImage" />
        <dc:title></dc:title>
      </cc:Work>
    </rdf:RDF>
  </metadata>
  <defs
     id="defs276" />
  <g
     transform="translate(-156.45088,-280.3007)"
     id="g4">
    <g
       id="g6">
      <g
         id="g8">
        <path
           d="m 297.638,281.636 c 76.728,0 139.308,62.58 139.308,139.309 0,76.729 -62.58,139.309 -139.308,139.309 -76.729,0 -139.309,-62.58 -139.309,-139.309 0,-76.729 62.58,-139.309 139.309,-139.309 z"
           id="path10"
           style="fill:#3737c8;stroke:none" />
        <path
           d="m 262.79,323.385 3,3.789 4.478,-1.581 -2.638,4.184 2.997,3.792 -4.671,-1.235 -2.634,4.189 -0.167,-5.157 -4.673,-1.236 4.471,-1.584 -0.163,-5.161 z"
           id="path12"
           style="fill:#ffffff;stroke:none" />
        <path
           d="m 231.477,341.315 4.114,2.536 3.667,-3.018 -1.047,4.835 4.112,2.538 -4.811,0.438 -1.043,4.836 -1.921,-4.788 -4.814,0.438 3.661,-3.02 -1.918,-4.795 z"
           id="path14"
           style="fill:#ffffff;stroke:none" />
        <path
           d="m 208.26,368.982 4.735,0.975 2.412,-4.089 0.671,4.9 4.731,0.978 -4.372,2.057 0.676,4.902 -3.444,-3.844 -4.374,2.059 2.409,-4.089 -3.444,-3.849 z"
           id="path16"
           style="fill:#ffffff;stroke:none" />
        <path
           d="m 195.984,402.856 4.782,-0.703 0.869,-4.667 2.307,4.376 4.779,-0.7 -3.404,3.427 2.311,4.376 -4.551,-2.434 -3.406,3.431 0.865,-4.666 -4.552,-2.44 z"
           id="path18"
           style="fill:#ffffff;stroke:none" />
        <path
           d="m 195.929,438.808 4.253,-2.295 -0.78,-4.685 3.665,3.322 4.251,-2.291 -2.027,4.385 3.669,3.322 -5.11,-0.73 -2.026,4.387 -0.784,-4.679 -5.111,-0.736 z"
           id="path20"
           style="fill:#ffffff;stroke:none" />
        <path
           d="m 208.134,472.707 3.212,-3.611 -2.337,-4.136 4.582,1.869 3.21,-3.607 -0.404,4.813 4.583,1.867 -5.051,1.061 -0.404,4.815 -2.337,-4.128 -5.054,1.057 z"
           id="path22"
           style="fill:#ffffff;stroke:none" />
        <path
           d="m 262.573,518.413 0.139,-4.831 -4.447,-1.667 4.71,-1.512 0.14,-4.829 2.785,3.948 4.712,-1.516 -3.189,4.059 2.786,3.949 -4.443,-1.66 -3.193,4.059 z"
           id="path24"
           style="fill:#ffffff;stroke:none" />
        <path
           d="m 297.996,524.641 -1.523,-4.587 -4.749,-0.046 3.909,-3.031 -1.519,-4.585 3.966,2.756 3.909,-3.035 -1.607,4.904 3.968,2.758 -4.743,-0.04 -1.611,4.906 z"
           id="path26"
           style="fill:#ffffff;stroke:none" />
        <path
           d="m 333.429,518.505 -3.001,-3.79 -4.477,1.581 2.637,-4.185 -2.997,-3.788 4.672,1.233 2.633,-4.189 0.167,5.157 4.672,1.235 -4.47,1.585 0.164,5.161 z"
           id="path28"
           style="fill:#ffffff;stroke:none" />
        <path
           d="m 364.742,500.574 -4.114,-2.536 -3.667,3.018 1.047,-4.836 -4.113,-2.534 4.812,-0.44 1.043,-4.837 1.921,4.789 4.811,-0.436 -3.659,3.018 1.919,4.794 z"
           id="path30"
           style="fill:#ffffff;stroke:none" />
        <path
           d="m 387.958,472.908 -4.734,-0.975 -2.413,4.089 -0.67,-4.902 -4.731,-0.974 4.37,-2.059 -0.675,-4.902 3.444,3.844 4.372,-2.056 -2.406,4.086 3.443,3.849 z"
           id="path32"
           style="fill:#ffffff;stroke:none" />
        <path
           d="m 258.622,305.274 c 2.825,0 5.13,2.305 5.13,5.131 0,2.826 -2.305,5.13 -5.13,5.13 -2.826,0 -5.131,-2.304 -5.131,-5.13 0,-2.826 2.305,-5.131 5.131,-5.131 z"
           id="path34"
           style="fill:#ffffff;stroke:none" />
        <path
           d="m 230.911,317.638 10.382,13.416 -5.593,1.01 -4.91,-6.209 c -0.732,1.415 -0.775,3.064 -0.708,4.75 l -3.788,-0.012 c -0.211,-0.72 -0.261,-1.442 -0.191,-2.15 -6.396,-0.189 -4.388,8.322 5.049,6.265 l 0.398,2.889 c -5.058,0.188 -12.291,1.076 -13.622,-5.694 -0.237,-3.055 1.114,-5.143 4.052,-6.264 1.542,-0.433 2.979,-0.48 4.727,-0.061 0.371,-1.162 0.7,-2.305 1.217,-3.397 l -1.349,-1.729 c -6.389,4.31 -12.103,8.925 -17.054,13.813 4.702,1.286 6.505,3.982 5.409,8.086 3.347,0.737 5.637,0.144 8.677,-0.96 l 1.61,1.756 c -3.092,1.705 -6.562,2.792 -10.292,3.456 -3.218,0.469 -5.75,-0.005 -7.28,-1.86 -1.187,-2.18 0.002,-3.645 2.37,-4.039 0.241,-1.911 -0.803,-3.153 -3.134,-3.728 -1.44,1.538 -2.806,3.102 -4.095,4.691 l -4.722,-0.75 c 1.785,-2.178 3.642,-4.298 5.574,-6.357 l -5.389,0.57 c -0.881,0.049 -1.543,0.376 -1.983,0.981 l -1.899,2.729 -4.174,-1.607 2.859,-4.102 c 0.748,-1.071 1.712,-1.748 3.157,-1.561 l 10.432,-0.102 c 6.978,-6.937 14.872,-13.119 23.807,-18.442 l 3.629,2.687 c -1.071,0.634 -2.127,1.276 -3.166,1.925 z"
           id="path36"
           style="fill:#ffffff;stroke:none" />
        <path
           d="m 179.904,444.222 c -0.541,-2.133 -1.021,-4.245 -1.442,-6.338 l 5.322,-0.928 c 0.601,1.973 1.306,3.935 2.065,5.863 -14.114,6.142 -2.623,21.792 2.025,12.542 0.617,-2.246 0.655,-4.863 -1.098,-6.747 -0.178,-0.941 0.364,-1.211 0.952,-1.357 0.064,0.163 0.127,0.327 0.188,0.492 0.434,1.182 0.611,2.584 1.552,3.514 0.954,0.679 1.661,0.531 2.776,-0.161 1.257,-1.082 3.323,-5.588 2.022,-9.286 -0.495,-1.095 -1.313,-1.524 -2.61,-1.048 l -1.771,0.624 -1.483,-5.242 4.105,-0.716 1.741,-5.41 -16.698,2.783 c -0.187,-1.185 -0.355,-2.365 -0.505,-3.538 l 13.893,-1.573 2.062,-5.296 -16.493,1.741 c -0.226,-2.742 -0.349,-5.449 -0.374,-8.124 2.131,-1.212 3.765,-1.029 4.905,0.55 -1.465,1.903 -1.334,3.785 1.019,4.57 2.384,0.314 4.56,-1.066 6.594,-3.604 2.275,-3.028 4.073,-6.19 5.172,-9.545 l -2.375,-0.186 c -1.472,2.88 -2.742,4.875 -5.693,6.618 -2.016,-3.785 -5.213,-4.505 -9.592,-2.161 0.191,-7.629 1.178,-14.994 2.848,-22.131 l 2.676,0.481 -1.588,8.51 c -0.638,5.022 2.84,6.278 7.719,4.07 2.984,-1.384 4.952,-3.728 6.945,-5.994 l -1.13,-2.31 c -1.587,1.581 -4.079,3.47 -6.303,4.615 -2.289,0.778 -3.505,-0.559 -3.359,-2.038 l 1.697,-6.138 7.238,1.301 3.494,-4.483 -16.098,-3.02 c 0.441,-1.561 0.914,-3.112 1.418,-4.653 l 13.161,4.447 4.116,-3.92 -15.57,-5.392 c 0.906,-2.417 1.884,-4.809 2.935,-7.178 3.32,-0.067 4.206,1.706 2.657,5.322 -0.337,0.621 -0.086,1.072 0.752,1.351 6.659,1.234 10.136,-2.285 9.452,-8.825 l 2.895,1.435 4.604,-3.332 -14.655,-7.405 c 0.557,-1.011 1.126,-2.018 1.707,-3.021 l -5.038,0.189 c -3.895,6.657 -7.147,13.454 -9.719,20.409 -4.274,0.735 -9.138,1.041 -10.761,5.892 -2.484,7.088 -2.284,15.36 6.213,9.662 -3.879,17.916 -3.39,36.898 2.015,57.235 l 3.42,-3.116 z m 3.032,7.91 c -0.063,-1.254 0.248,-2.329 0.865,-2.36 0.616,-0.031 0.969,0.987 1.032,2.241 0.063,1.254 -0.188,2.282 -0.804,2.312 -0.617,0.031 -1.031,-0.939 -1.093,-2.193 z m -5.573,-72.795 c -0.625,1.942 -1.198,3.895 -1.717,5.862 l -3.183,1.21 c -0.84,0.271 -1.203,-0.394 -0.98,-1.296 l 0.478,-3.224 c 0.308,-1.12 1.046,-1.771 2.214,-1.951 l 3.188,-0.601 z m 10.804,-14.814 c 0.482,-1.003 0.975,-2.002 1.481,-2.996 l 5.555,2.754 c 1.058,4.395 0.269,7.455 -2.611,7.322 1.556,-4.03 0.081,-6.39 -4.425,-7.08 z"
           id="path38"
           style="fill:#ffffff;stroke:none" />
        <path
           d="m 388.085,369.183 -3.212,3.611 2.336,4.134 -4.582,-1.869 -3.209,3.611 0.401,-4.815 -4.581,-1.868 5.052,-1.06 0.405,-4.816 2.336,4.129 5.054,-1.057 z"
           id="path40"
           style="fill:#ffffff;stroke:none" />
        <path
           d="m 364.92,341.466 -1.782,4.493 3.607,3.085 -4.944,-0.189 -1.781,4.491 -1.269,-4.664 -4.943,-0.186 4.384,-2.725 -1.266,-4.664 3.607,3.081 4.387,-2.722 z"
           id="path42"
           style="fill:#ffffff;stroke:none" />
        <path
           d="m 298.223,317.249 1.523,4.587 4.748,0.046 -3.909,3.029 1.52,4.589 -3.967,-2.758 -3.909,3.035 1.608,-4.904 -3.97,-2.759 4.744,0.041 1.612,-4.906 z"
           id="path44"
           style="fill:#ffffff;stroke:none" />
        <path
           d="m 287.246,313.496 -1.485,-21.252 6.599,-0.461 1.486,21.253 -6.6,0.46 z"
           id="path46"
           style="fill:#ffffff;stroke:none" />
        <path
           d="m 296.753,312.715 0.373,-21.361 6.18,0.108 7.049,12.205 -0.424,-5.693 0.109,-6.393 5.31,0.094 -0.373,21.361 -5.434,-0.161 c -0.538,-0.978 -1.357,-2.36 -2.443,-4.14 -1.082,-1.781 -2.06,-3.463 -2.92,-5.052 -0.683,-1.216 -1.485,-2.8 -2.401,-4.767 0.3,1.827 0.445,2.878 0.44,3.147 l -0.187,10.745 -5.279,-0.093 z"
           id="path48"
           style="fill:#ffffff;stroke:none" />
        <path
           d="m 317.745,313.626 4.793,-20.756 9.047,2.091 c 1.372,0.316 2.578,0.87 3.618,1.662 1.041,0.791 1.858,1.734 2.459,2.815 0.6,1.082 0.988,2.324 1.164,3.727 0.176,1.403 0.093,2.837 -0.248,4.312 -0.424,1.832 -1.18,3.457 -2.272,4.875 -1.092,1.414 -2.531,2.428 -4.322,3.034 -1.786,0.605 -3.841,0.641 -6.16,0.109 l -8.079,-1.869 z m 7.474,-3.246 c 1.884,0.606 3.369,0.466 4.466,-0.419 1.098,-0.88 1.843,-2.179 2.242,-3.897 0.404,-1.75 0.269,-3.302 -0.409,-4.648 -0.678,-1.346 -1.91,-2.117 -3.691,-2.319 l -2.608,11.283 z"
           id="path50"
           style="fill:#ffffff;stroke:none" />
        <path
           d="m 337.598,319.195 7.635,-19.891 6.174,2.37 -7.634,19.892 -6.175,-2.371 z"
           id="path52"
           style="fill:#ffffff;stroke:none" />
        <path
           d="m 344.977,322.12 16.268,-15.451 5.973,3.313 -4.534,21.956 -5.839,-3.24 0.922,-4.285 -4.969,-2.754 -3.095,3.08 -4.726,-2.619 z m 14.094,-2.309 1.475,-6.18 -4.487,4.508 3.012,1.672 z"
           id="path54"
           style="fill:#ffffff;stroke:none" />
        <path
           d="m 363.303,333.113 13.737,-16.366 4.736,3.975 -2.205,13.928 3.251,-4.694 4.115,-4.902 4.068,3.416 -13.737,16.367 -4.125,-3.545 c 0.196,-1.103 0.434,-2.687 0.709,-4.752 0.274,-2.071 0.579,-3.991 0.911,-5.766 0.233,-1.372 0.605,-3.111 1.128,-5.212 -0.916,1.609 -1.46,2.515 -1.635,2.722 l -6.905,8.23 -4.048,-3.401 z"
           id="path56"
           style="fill:#ffffff;stroke:none" />
        <path
           d="m 402.138,341.56 6.138,9.452 c 0.678,1.04 1.144,2.039 1.398,3.002 0.248,0.957 0.315,1.858 0.196,2.702 -0.118,0.844 -0.408,1.62 -0.869,2.34 -0.456,0.719 -1.087,1.35 -1.895,1.899 -1.025,0.668 -2.143,1.025 -3.349,1.082 -1.211,0.062 -2.375,-0.337 -3.498,-1.191 l -5.673,8.313 -3.955,-6.092 5.114,-7.174 -1.045,-1.61 -6.874,4.461 -3.607,-5.548 17.919,-11.636 z m -0.223,8.034 -3.411,2.215 1.703,2.629 c 0.419,0.642 0.9,1.025 1.454,1.149 0.549,0.125 1.056,0.037 1.527,-0.269 0.466,-0.305 0.756,-0.745 0.865,-1.319 0.103,-0.575 -0.052,-1.186 -0.466,-1.828 l -1.672,-2.577 z"
           id="path58"
           style="fill:#ffffff;stroke:none" />
        <path
           d="m 394.967,369.128 22.365,-1.77 2.562,6.335 -17.339,14.208 -2.5,-6.191 3.406,-2.753 -2.128,-5.269 -4.342,0.45 -2.024,-5.01 z m 12.407,7.08 5.031,-3.876 -6.325,0.678 1.294,3.198 z"
           id="path60"
           style="fill:#ffffff;stroke:none" />
        <path
           d="m 402.491,389.185 20.673,-5.15 1.599,6.418 -20.673,5.15 -1.599,-6.418 z"
           id="path62"
           style="fill:#ffffff;stroke:none" />
        <path
           d="m 404.565,398.662 21.097,-2.966 0.916,6.516 -15.932,2.242 1.17,8.302 -5.165,0.725 -2.086,-14.819 z"
           id="path64"
           style="fill:#ffffff;stroke:none" />
        <path
           d="m 406.757,416.985 21.646,-4.12 -0.424,6.045 -12.635,2.164 12.221,3.783 -0.363,5.146 -12.577,2.261 12.148,3.841 -0.347,5.021 -20.854,-7.19 0.378,-5.424 12.075,-2.143 -11.671,-3.618 0.403,-5.766 z"
           id="path66"
           style="fill:#ffffff;stroke:none" />
        <path
           d="m 405.047,436.84 18.924,12.044 -1.765,6.599 -22.397,0.912 1.729,-6.45 4.374,-0.145 1.475,-5.486 -3.737,-2.257 1.397,-5.217 z m 5.653,13.121 6.345,-0.067 -5.455,-3.266 -0.89,3.333 z"
           id="path68"
           style="fill:#ffffff;stroke:none" />
        <path
           d="m 398.239,459.014 8.199,3.654 14.167,-1.512 -2.904,6.522 -7.842,0.59 4.876,6.077 -2.314,5.191 -8.561,-11.087 -8.224,-3.592 2.603,-5.843 z"
           id="path70"
           style="fill:#ffffff;stroke:none" />
        <path
           d="m 397.642,474.262 -2.443,5.606 c -0.828,-0.301 -1.646,-0.264 -2.459,0.119 -0.807,0.377 -1.475,0.906 -1.992,1.578 -0.409,0.647 -0.653,1.243 -0.735,1.776 -0.088,0.538 0.026,0.911 0.331,1.123 0.647,0.378 1.904,-0.269 3.768,-1.946 1.868,-1.672 3.597,-2.826 5.191,-3.453 1.589,-0.631 3.391,-0.088 5.404,1.625 0.937,0.756 1.537,1.745 1.806,2.972 0.27,1.221 0.233,2.525 -0.103,3.907 -0.331,1.382 -0.911,2.656 -1.729,3.825 -1.081,1.548 -2.422,2.697 -4.016,3.463 -1.6,0.766 -3.334,0.932 -5.207,0.502 l 1.703,-5.362 c 0.709,0.217 1.387,0.176 2.028,-0.13 0.647,-0.31 1.186,-0.776 1.626,-1.402 0.383,-0.544 0.605,-1.071 0.673,-1.579 0.062,-0.512 -0.037,-0.859 -0.311,-1.051 -0.491,-0.419 -1.19,-0.238 -2.101,0.539 -0.911,0.776 -1.983,1.734 -3.22,2.862 -1.231,1.134 -2.562,1.864 -3.98,2.195 -1.424,0.331 -2.966,-0.047 -4.627,-1.134 -1.253,-0.849 -2.066,-1.941 -2.454,-3.271 -0.383,-1.33 -0.383,-2.753 -0.005,-4.27 0.383,-1.517 1.04,-2.94 1.977,-4.281 1.377,-1.967 3.064,-3.385 5.062,-4.249 1.993,-0.865 3.934,-0.849 5.813,0.036 z"
           id="path72"
           style="fill:#ffffff;stroke:none" />
        <path
           d="m 400.235,439.033 -4.783,0.703 -0.868,4.668 -2.307,-4.378 -4.779,0.703 3.401,-3.429 -2.308,-4.375 4.55,2.433 3.406,-3.427 -0.864,4.662 4.552,2.44 z"
           id="path74"
           style="fill:#ffffff;stroke:none" />
        <path
           d="m 400.29,403.082 -4.253,2.295 0.78,4.683 -3.665,-3.323 -4.251,2.296 2.024,-4.387 -3.667,-3.322 5.11,0.73 2.028,-4.385 0.782,4.677 5.112,0.736 z"
           id="path76"
           style="fill:#ffffff;stroke:none" />
        <path
           d="m 333.645,323.477 -0.138,4.831 4.445,1.665 -4.71,1.514 -0.138,4.83 -2.787,-3.949 -4.708,1.516 3.186,-4.061 -2.785,-3.949 4.445,1.661 3.19,-4.058 z"
           id="path78"
           style="fill:#ffffff;stroke:none" />
        <path
           d="m 298.109,332.64 c 48.611,0 88.257,39.647 88.257,88.257 0,48.61 -39.646,88.257 -88.257,88.257 -48.61,0 -88.257,-39.647 -88.257,-88.257 0,-48.61 39.647,-88.257 88.257,-88.257 z"
           id="path80"
           style="fill:#ffffff;stroke:none" />
        <path
           d="m 298.109,342.071 c 43.416,0 78.827,35.41 78.827,78.826 0,43.417 -35.411,78.827 -78.827,78.827 -43.416,0 -78.826,-35.41 -78.826,-78.827 0,-43.416 35.41,-78.826 78.826,-78.826 z"
           id="path84"
           style="fill:#273785;stroke:none" />
        <path
           d="m 298.109,338.629 c 45.312,0 82.268,36.956 82.268,82.268 0,45.312 -36.956,82.269 -82.268,82.269 -45.312,0 -82.268,-36.957 -82.268,-82.269 0,-45.312 36.956,-82.268 82.268,-82.268 z"
           id="path82"
           style="fill:#3737c8;fill-opacity:1;stroke:none" />
        <path
           d="m 238.05,369.944 120.118,0 c 3.255,3.83 6.151,7.972 8.637,12.375 l -137.392,0 c 2.486,-4.403 5.382,-8.545 8.637,-12.375 z"
           id="path86"
           style="fill:#ffffff;stroke:none" />
        <path
           d="m 254.911,355.022 86.397,0 c 5.355,3.527 10.257,7.688 14.6,12.375 l -115.597,0 c 4.343,-4.687 9.245,-8.848 14.6,-12.375 z"
           id="path88"
           style="fill:#ffffff;stroke:none" />
        <path
           d="m 228.033,384.866 140.153,0 c 2.039,3.945 3.754,8.081 5.111,12.375 l -150.375,0 c 1.357,-4.294 3.071,-8.43 5.111,-12.375 z"
           id="path90"
           style="fill:#ffffff;stroke:none" />
        <path
           d="m 222.165,399.788 151.888,0 c 1.118,4.007 1.923,8.142 2.394,12.374 l -156.676,0 c 0.471,-4.232 1.277,-8.367 2.394,-12.374 z"
           id="path92"
           style="fill:#ffffff;stroke:none" />
        <path
           d="m 219.526,414.71 157.167,0 c 0.16,2.042 0.243,4.105 0.243,6.187 0,2.082 -0.084,4.146 -0.243,6.187 l -157.167,0 c -0.16,-2.041 -0.243,-4.105 -0.243,-6.187 0,-2.082 0.083,-4.145 0.243,-6.187 z"
           id="path94"
           style="fill:#ffffff;stroke:none" />
        <path
           d="m 219.771,429.632 156.676,0 c -0.47,4.233 -1.276,8.367 -2.394,12.374 l -151.888,0 c -1.117,-4.007 -1.924,-8.141 -2.394,-12.374 z"
           id="path96"
           style="fill:#ffffff;stroke:none" />
        <path
           d="m 222.922,444.554 150.375,0 c -1.357,4.293 -3.072,8.43 -5.111,12.374 l -140.153,0 c -2.04,-3.944 -3.755,-8.081 -5.111,-12.374 z"
           id="path98"
           style="fill:#ffffff;stroke:none" />
        <path
           d="m 229.413,459.476 137.392,0 c -2.485,4.403 -5.381,8.545 -8.636,12.374 l -120.119,0 c -3.255,-3.829 -6.151,-7.971 -8.637,-12.374 z"
           id="path100"
           style="fill:#ffffff;stroke:none" />
        <path
           d="m 240.311,474.398 115.597,0 c -4.343,4.687 -9.245,8.847 -14.6,12.374 l -86.398,0 c -5.354,-3.527 -10.257,-7.687 -14.599,-12.374 z"
           id="path102"
           style="fill:#ffffff;stroke:none" />
        <path
           d="m 337.797,352.839 -79.376,0 c 11.669,-6.839 25.233,-10.768 39.688,-10.768 14.455,0 28.019,3.929 39.688,10.768 z"
           id="path104"
           style="fill:#ffffff;stroke:none" />
        <path
           d="m 258.421,488.956 79.376,0 c -11.668,6.839 -25.233,10.768 -39.688,10.768 -14.455,0 -28.019,-3.929 -39.688,-10.768 z"
           id="path106"
           style="fill:#ffffff;stroke:none" />
        <path
           d="m 291.782,383.358 -31.707,14.044 -0.437,92.269 37.722,23.99 5.851,-0.02 36.916,-26.326 0.043,-58.029 -48.388,-45.928 z"
           id="path108"
           style="fill:#3737c8;fill-opacity:1;stroke:none" />
        <path
           d="m 339.202,431.669 c -0.058,11.444 -0.116,20.294 -0.175,31.739 -6.933,0.06 -14.7,0.064 -22.763,0.036 l -32.127,0 c -8.309,0.071 -16.321,0.025 -23.451,-0.036 -0.057,-11.087 -0.113,-19.739 -0.169,-30.674 -0.002,-0.353 -0.09,-1.412 -0.006,-1.065 3.231,13.219 11.83,22.476 23.231,27.92 l 0,-2.199 37.01,0 c 8.917,-5.672 15.832,-14.447 18.45,-25.721 z"
           id="path110"
           style="fill:#ffffff;stroke:none" />
        <path
           d="m 217.393,406.317 c 10.538,-12.502 100.198,-99.879 91.038,-31.776 -4.79,-2.653 -10.299,-2.612 -14.881,-0.171 -0.271,-5.998 -3.548,-9.609 -17.563,-4.693 -22.888,10.147 -41.42,26.325 -59.048,43.756 0.152,-2.372 0.303,-4.744 0.454,-7.116 z"
           id="path112"
           style="fill:#3737c8;fill-opacity:1;stroke:none" />
        <path
           d="m 290.19,375.564 c 3.153,2.327 2.186,4.81 0.633,6.803 6.748,0.099 13.782,0.141 20.53,0.24 -2.334,-2.036 -1.825,-4.864 0.396,-7.043 -7.274,-6.073 -14.056,-6.436 -21.559,0 z"
           id="path114"
           style="fill:#3737c8;fill-opacity:1;stroke:none" />
        <path
           d="m 300.365,381.571 c 22.478,0 40.81,18.333 40.81,40.81 0,22.478 -18.332,40.81 -40.81,40.81 -22.477,0 -40.809,-18.332 -40.809,-40.81 0,-22.477 18.332,-40.81 40.809,-40.81 z"
           id="path116"
           style="fill:#3737c8;fill-opacity:1;stroke:none" />
        <path
           d="m 300.365,382.457 c 21.99,0 39.925,17.935 39.925,39.924 0,21.99 -17.935,39.925 -39.925,39.925 -21.989,0 -39.924,-17.935 -39.924,-39.925 0,-19.241 13.732,-35.377 31.896,-39.11 2.595,-0.534 5.28,-0.814 8.028,-0.814 z"
           id="path118"
           style="fill:#ffffff;stroke:none" />
        <path
           d="m 300.562,384.06 c 20.998,0 38.124,17.126 38.124,38.124 0,7.006 -1.908,13.579 -5.228,19.231 l -19.049,-9.719 c -4.626,0 -9.252,0 -13.863,0 -4.627,0 -9.238,0 -13.848,0 l -19.034,9.719 c -3.321,-5.651 -5.228,-12.225 -5.228,-19.231 0,-20.998 17.128,-38.124 38.126,-38.124 z"
           id="path120"
           style="fill:#3737c8;fill-opacity:1;stroke:none" />
        <path
           d="m 260.529,464.893 78.746,0 0,8.774 -78.746,0 0,-8.774 z"
           id="path122"
           style="fill:#ffffff;stroke:none" />
        <path
           d="m 260.575,473.84 78.715,0 0,13.513 -14.275,8.204 -1.361,0.783 -23.62,13.576 -0.136,0.068 -39.323,-22.631 0,-13.513 z"
           id="path124"
           style="fill:#ffffff;stroke:none" />
        <path
           d="m 293.984,375.717 c 4.83,-1.603 9.423,-1.775 14.135,0 0.481,0.181 0.997,0.307 0.997,0.682 0,0.311 0,0.623 0,0.934 0,0.375 -0.538,0.887 -0.997,0.682 -4.83,-2.155 -9.266,-2.069 -14.135,0 -0.465,0.198 -0.997,-0.307 -0.997,-0.682 0,-0.311 0,-0.623 0,-0.934 0,-0.375 0.504,-0.518 0.997,-0.682 z"
           id="path126"
           style="fill:#ffffff;stroke:none" />
        <path
           d="m 261.245,399.006 c 2.73,-1.255 5.409,-2.411 8.139,-3.666 -4.064,4.64 -6.251,10.112 -8.274,14.257 -0.037,-3.17 0.16,-7.256 0.135,-10.591 z"
           id="path128"
           style="fill:#ffffff;stroke:none" />
        <path
           d="m 270.874,427.405 c 1.166,-0.198 2.115,-0.024 2.364,0.514 0.233,0.502 -0.199,1.197 -1.034,1.817 0.779,1.234 1.682,2.477 2.708,3.729 0.399,1.928 -0.319,2.484 -2.155,2.335 -1.174,-1.624 -2.202,-3.256 -3.075,-4.894 -1.408,0.361 -2.625,0.224 -2.912,-0.396 -0.286,-0.615 0.427,-1.521 1.655,-2.221 -3.269,-7.659 -2.95,-15.389 2.348,-22.869 -1.081,-0.854 -1.626,-1.83 -1.251,-2.393 0.395,-0.593 1.688,-0.543 3.074,0.058 1.338,-1.564 2.904,-3.116 4.71,-4.652 1.487,-1.001 2.93,0.186 1.914,1.425 -1.744,1.519 -3.269,3.033 -4.58,4.542 0.824,0.767 1.201,1.576 0.873,2.068 -0.352,0.529 -1.416,0.547 -2.624,0.119 -5.043,6.888 -5.617,13.732 -2.015,20.818 z"
           id="path130"
           style="fill:#ffffff;stroke:none" />
        <path
           d="m 330.25,427.405 c -1.166,-0.198 -2.114,-0.024 -2.363,0.514 -0.233,0.502 0.199,1.197 1.034,1.817 -0.779,1.234 -1.682,2.477 -2.708,3.729 -0.399,1.928 0.319,2.484 2.155,2.335 1.173,-1.624 2.202,-3.256 3.075,-4.894 1.407,0.361 2.624,0.224 2.912,-0.396 0.286,-0.615 -0.427,-1.521 -1.656,-2.221 3.27,-7.659 2.95,-15.389 -2.347,-22.869 1.081,-0.854 1.625,-1.83 1.25,-2.393 -0.394,-0.593 -1.688,-0.543 -3.074,0.058 -1.338,-1.564 -2.903,-3.116 -4.71,-4.652 -1.486,-1.001 -2.929,0.186 -1.913,1.425 1.744,1.519 3.269,3.033 4.579,4.542 -0.824,0.767 -1.201,1.576 -0.872,2.068 0.351,0.529 1.416,0.547 2.624,0.119 5.043,6.888 5.617,13.732 2.014,20.818 z"
           id="path132"
           style="fill:#ffffff;stroke:none" />
        <path
           d="m 300.561,399.535 c 12.476,0 22.651,10.175 22.651,22.651 0,12.475 -10.176,22.65 -22.651,22.65 -12.475,0 -22.65,-10.175 -22.65,-22.65 0,-12.476 10.175,-22.651 22.65,-22.651 z"
           id="path134"
           style="fill:#ffffff;stroke:none" />
        <path
           d="m 220.848,404.002 c 10.431,-10.432 94.415,-91.843 86.407,-30.73 -5.643,-0.584 -8.812,-0.686 -12.589,-0.057 0.219,-5.57 -5.868,-9.756 -18.435,-4.747 -21.987,9.218 -38.477,23.37 -55.41,39.206 0.046,-2.155 -0.043,-1.517 0.027,-3.672 z"
           id="path136"
           style="fill:#ffffff;stroke:none" />
        <path
           d="m 300.841,378.485 c 4.754,0 8.631,3.932 8.631,8.754 0,4.821 -3.877,8.754 -8.631,8.754 -4.753,0 -8.631,-3.932 -8.631,-8.754 0,-4.822 3.878,-8.754 8.631,-8.754 z"
           id="path138"
           style="fill:#ffffff;stroke:none" />
        <path
           d="m 297.487,393.999 c 2.159,2.316 3.755,2.839 6.753,0.065 l 0.593,7.021 c -2.967,-1.258 -5.207,-1.248 -7.935,-0.286 l 0.589,-6.8 z"
           id="path140"
           style="fill:#ffffff;stroke:none" />
        <path
           d="m 297.968,396.266 c 1.984,1.25 3.318,1.68 5.81,-0.142 l 0.478,3.916 c -2.504,-0.799 -4.418,-0.788 -6.782,-0.211 l 0.494,-3.563 z"
           id="path142"
           style="fill:#3737c8;fill-opacity:1;stroke:none" />
        <path
           d="m 300.859,379.976 c 3.957,0 7.184,3.228 7.184,7.184 0,3.957 -3.227,7.184 -7.184,7.184 -3.956,0 -7.183,-3.227 -7.183,-7.184 0,-3.956 3.227,-7.184 7.183,-7.184 z"
           id="path144"
           style="fill:#3737c8;fill-opacity:1;stroke:none" />
        <path
           d="m 295.918,381.953 0,10.414 c -0.401,-0.382 -0.759,-0.809 -1.064,-1.273 l 0,-7.867 c 0.305,-0.465 0.663,-0.892 1.064,-1.274 z"
           id="path146"
           style="fill:#ffffff;stroke:none" />
        <path
           d="m 298.655,380.324 0,13.673 c -0.369,-0.12 -0.724,-0.268 -1.064,-0.442 l 0,-12.789 c 0.34,-0.175 0.695,-0.323 1.064,-0.442 z"
           id="path148"
           style="fill:#ffffff;stroke:none" />
        <path
           d="m 301.392,379.996 0,14.328 c -0.176,0.013 -0.354,0.02 -0.533,0.02 -0.179,0 -0.356,-0.006 -0.532,-0.019 l 0,-14.329 c 0.176,-0.013 0.353,-0.02 0.532,-0.02 0.179,0 0.357,0.007 0.533,0.02 z"
           id="path150"
           style="fill:#ffffff;stroke:none" />
        <path
           d="m 304.128,380.766 0,12.789 c -0.34,0.174 -0.696,0.322 -1.064,0.442 l 0,-13.673 c 0.368,0.119 0.724,0.267 1.064,0.442 z"
           id="path152"
           style="fill:#ffffff;stroke:none" />
        <path
           d="m 306.865,383.227 0,7.866 c -0.305,0.465 -0.663,0.892 -1.064,1.274 l 0,-10.413 c 0.401,0.381 0.759,0.809 1.064,1.273 z"
           id="path154"
           style="fill:#ffffff;stroke:none" />
        <path
           d="m 260.437,452.348 2.14,-0.066 0.126,-3.014 6.935,0.005 0.46,0.496 0.122,2.251 2.684,0.09 -1.386,-1.166 2.455,2.03 -0.032,9.35 -13.495,-0.094 -0.009,-9.882 z"
           id="path156"
           style="fill:#3737c8;fill-opacity:1;stroke:none" />
        <path
           d="m 339.816,452.348 -2.367,-0.066 -0.011,-3.014 -6.463,0.005 -0.443,0.496 -0.116,2.251 -2.58,0.09 1.332,-1.166 -2.359,2.03 0.031,9.35 12.968,-0.094 0.008,-9.882 z"
           id="path158"
           style="fill:#3737c8;fill-opacity:1;stroke:none" />
        <path
           d="m 260.053,470.297 80.086,0 0,1.388 -80.086,0 0,-1.388 z"
           id="path160"
           style="fill:#3737c8;fill-opacity:1;stroke:none" />
        <path
           d="m 259.957,463.468 80.182,0 0,1.53 -80.182,0 0,-1.53 z"
           id="path162"
           style="fill:#3737c8;fill-opacity:1;stroke:none" />
        <path
           d="m 259.861,473.3 79.984,0 0,0.828 -79.984,0 0,-0.828 z"
           id="path164"
           style="fill:#273785;stroke:none" />
        <path
           d="m 276.922,460.578 c 3.613,0 6.559,2.946 6.559,6.558 0,3.613 -2.946,6.559 -6.559,6.559 -3.612,0 -6.558,-2.946 -6.558,-6.559 0,-3.612 2.946,-6.558 6.558,-6.558 z"
           id="path166"
           style="fill:#3737c8;fill-opacity:1;stroke:none" />
        <path
           d="m 323.216,460.578 c 3.613,0 6.559,2.946 6.559,6.558 0,3.613 -2.946,6.559 -6.559,6.559 -3.612,0 -6.558,-2.946 -6.558,-6.559 0,-3.612 2.946,-6.558 6.558,-6.558 z"
           id="path168"
           style="fill:#3737c8;fill-opacity:1;stroke:none" />
        <path
           d="m 296.44,466.79 0,-1.233 5.904,0 0,1.233 -5.904,0 z"
           id="path170"
           style="fill:#3737c8;fill-opacity:1;stroke:none" />
        <path
           d="m 295.32,465.557 1.232,0 0,3.428 -1.232,0 0,-3.428 z"
           id="path172"
           style="fill:#3737c8;fill-opacity:1;stroke:none" />
        <path
           d="m 293.085,465.358 1.233,0 0,4.98 -1.233,0 0,-4.98 z"
           id="path174"
           style="fill:#3737c8;fill-opacity:1;stroke:none" />
        <path
           d="m 302.311,465.557 1.232,0 0,4.747 -1.232,0 0,-4.747 z"
           id="path176"
           style="fill:#3737c8;fill-opacity:1;stroke:none" />
        <path
           d="m 305.487,464.435 1.232,0 0,5.903 -1.232,0 0,-5.903 z"
           id="path178"
           style="fill:#3737c8;fill-opacity:1;stroke:none" />
        <path
           d="m 276.922,461.723 c 2.982,0 5.413,2.431 5.413,5.413 0,2.982 -2.431,5.414 -5.413,5.414 -2.982,0 -5.414,-2.432 -5.414,-5.414 0,-2.982 2.432,-5.413 5.414,-5.413 z"
           id="path180"
           style="fill:#ffffff;stroke:none" />
        <path
           d="m 323.216,461.723 c 2.983,0 5.414,2.431 5.414,5.413 0,2.982 -2.432,5.414 -5.414,5.414 -2.981,0 -5.413,-2.432 -5.413,-5.414 0,-2.982 2.432,-5.413 5.413,-5.413 z"
           id="path182"
           style="fill:#ffffff;stroke:none" />
        <path
           d="m 267.372,453.691 c 1.62,0 2.943,1.439 2.943,3.203 0,1.764 -1.323,3.202 -2.943,3.202 -1.621,0 -2.943,-1.438 -2.943,-3.202 0,-1.764 1.322,-3.203 2.943,-3.203 z"
           id="path184"
           style="fill:#ffffff;stroke:none" />
        <path
           d="m 333.647,453.691 c -1.621,0 -2.943,1.439 -2.943,3.203 0,1.764 1.322,3.202 2.942,3.202 1.621,0 2.943,-1.438 2.943,-3.202 0,-1.764 -1.322,-3.203 -2.942,-3.203 z"
           id="path186"
           style="fill:#ffffff;stroke:none" />
        <path
           d="m 260.228,397.914 -0.308,87.709 -49.408,17.139 17.474,-31.857 -2.477,-3.738 10.768,-17.693 0.676,-3.982 6.696,-11.761 2.71,-15.712 13.869,-20.105 z"
           id="path188"
           style="fill:#3737c8;fill-opacity:1;stroke:none" />
        <path
           d="m 259.928,485.144 0.059,14.068 -49.634,3.707 1.883,-1.069 47.692,-16.706 z"
           id="path190"
           style="fill:#3737c8;fill-opacity:1;stroke:none" />
        <path
           d="m 210.437,502.991 c -0.021,0.645 0.084,1.575 0.062,2.22 2.129,0.361 4.349,1.391 6.478,1.751 1.623,1.38 3.192,1.663 4.644,-0.463 2.472,4.537 4.966,4.253 7.612,-0.697 2.602,6.065 7.127,5.558 8.022,-0.85 0.014,-0.101 -0.101,-0.128 -0.088,-0.232 1.81,10.096 9.252,9.559 11.739,-1.469 2.688,12.129 11.653,5.888 11.137,-4.102 -16.168,1.599 -33.437,2.244 -49.606,3.842 z"
           id="path192"
           style="fill:#3737c8;fill-opacity:1;stroke:none" />
        <path
           d="m 259.916,401.64 -0.591,83.109 -46.514,16.04 17.016,-30.173 -2.402,-3.905 10.689,-17.51 0.309,-3.084 6.838,-11.79 2.762,-15.448 11.893,-17.239 z"
           id="path194"
           style="fill:#ffffff;stroke:none" />
        <path
           d="m 259.35,491.989 -0.023,6.63 -47.296,3.628 47.319,-10.258 z"
           id="path196"
           style="fill:#ffffff;stroke:none" />
        <path
           d="m 259.362,486.329 -0.037,3.869 -44.974,11.354 45.011,-15.223 z"
           id="path198"
           style="fill:#ffffff;stroke:none" />
        <path
           d="m 211.214,503.722 c -0.021,0.601 -0.132,0.907 -0.153,1.508 2.072,0.336 4.234,1.296 6.306,1.632 1.58,1.286 3.108,1.55 4.521,-0.432 2.407,4.228 4.834,3.964 7.409,-0.649 2.534,5.653 6.938,5.18 7.81,-0.792 0.013,-0.095 -0.099,-0.119 -0.087,-0.217 1.762,9.409 9.007,8.909 11.428,-1.369 2.616,11.304 11.347,5.844 10.845,-3.467 -15.74,1.49 -32.34,2.297 -48.079,3.786 z"
           id="path200"
           style="fill:#ffffff;stroke:none" />
        <path
           d="m 241.967,448.332 8.148,-9.322 0,17.953 -8.148,5.8 0,-14.431 z"
           id="path202"
           style="fill:#3737c8;fill-opacity:1;stroke:none" />
        <path
           d="m 231.214,481.769 4.263,-3.364 0.069,7.167 -4.263,2.57 -0.069,-6.373 z"
           id="path204"
           style="fill:#3737c8;fill-opacity:1;stroke:none" />
        <path
           d="m 225.761,486.54 3.414,-2.695 0.055,5.741 -3.414,2.059 -0.055,-5.105 z"
           id="path206"
           style="fill:#3737c8;fill-opacity:1;stroke:none" />
        <path
           d="m 221.638,490.66 2.379,-1.877 0.038,3.999 -2.379,1.434 -0.038,-3.556 z"
           id="path208"
           style="fill:#3737c8;fill-opacity:1;stroke:none" />
        <path
           d="m 218.136,494.231 1.531,-1.208 0.025,2.575 -1.532,0.924 -0.024,-2.291 z"
           id="path210"
           style="fill:#3737c8;fill-opacity:1;stroke:none" />
        <path
           d="m 215.254,496.772 0.93,-0.734 0.015,1.563 -0.93,0.561 -0.015,-1.39 z"
           id="path212"
           style="fill:#3737c8;fill-opacity:1;stroke:none" />
        <path
           d="m 275.119,476.431 -3.257,-0.022 0,3.263 3.257,-3.241 z"
           id="path214"
           style="fill:#ffffff;stroke:none" />
        <path
           d="m 261.715,475.538 4.039,0 0,4.039 -4.039,0 0,-4.039 z"
           id="path216"
           style="fill:#3737c8;fill-opacity:1;stroke:none" />
        <path
           d="m 281.6,475.538 4.04,0 0,4.039 -4.04,0 0,-4.039 z"
           id="path218"
           style="fill:#3737c8;fill-opacity:1;stroke:none" />
        <path
           d="m 301.486,475.538 4.039,0 0,4.039 -4.039,0 0,-4.039 z"
           id="path220"
           style="fill:#3737c8;fill-opacity:1;stroke:none" />
        <path
           d="m 320.904,475.538 4.039,0 0,4.039 -4.039,0 0,-4.039 z"
           id="path222"
           style="fill:#3737c8;fill-opacity:1;stroke:none" />
        <path
           d="m 270.903,484.04 4.04,0 0,4.039 -4.04,0 0,-4.039 z"
           id="path224"
           style="fill:#3737c8;fill-opacity:1;stroke:none" />
        <path
           d="m 311.546,484.04 4.04,0 0,4.039 -4.04,0 0,-4.039 z"
           id="path226"
           style="fill:#3737c8;fill-opacity:1;stroke:none" />
        <path
           d="m 331.867,484.04 4.04,0 0,4.039 -4.04,0 0,-4.039 z"
           id="path228"
           style="fill:#3737c8;fill-opacity:1;stroke:none" />
        <path
           d="m 281.652,492.212 4.04,0 0,4.039 -4.04,0 0,-4.039 z"
           id="path230"
           style="fill:#3737c8;fill-opacity:1;stroke:none" />
        <path
           d="m 301.486,492.212 4.039,0 0,4.039 -4.039,0 0,-4.039 z"
           id="path232"
           style="fill:#3737c8;fill-opacity:1;stroke:none" />
        <path
           d="m 311.015,500.744 4.039,0 0,1.991 -4.017,2.314 -0.022,-4.305 z"
           id="path234"
           style="fill:#3737c8;fill-opacity:1;stroke:none" />
        <path
           d="m 291.224,484.04 4.04,0 0,4.039 -4.04,0 0,-4.039 z"
           id="path236"
           style="fill:#3737c8;fill-opacity:1;stroke:none" />
        <path
           d="m 291.456,500.744 4.039,0 0,4.04 -4.039,0 0,-4.04 z"
           id="path238"
           style="fill:#3737c8;fill-opacity:1;stroke:none" />
        <path
           d="m 320.904,492.212 4.039,0 0,3.292 -1.379,0.747 -2.66,0 0,-4.039 z"
           id="path240"
           style="fill:#3737c8;fill-opacity:1;stroke:none" />
        <path
           d="m 277.43,475.539 -6.527,-10e-4 0,6.587 6.527,-6.586 z m -2.311,1.01 -3.257,-0.023 0,3.264 3.257,-3.241 z"
           id="path242"
           style="fill:#3737c8;fill-opacity:1;stroke:none" />
        <path
           d="m 297.752,475.539 -6.528,-10e-4 0,6.587 6.528,-6.586 z m -2.312,1.01 -3.257,-0.023 0,3.264 3.257,-3.241 z"
           id="path244"
           style="fill:#3737c8;fill-opacity:1;stroke:none" />
        <path
           d="m 318.073,475.539 -6.527,-10e-4 0,6.587 6.527,-6.586 z m -2.311,1.01 -3.257,-0.023 0,3.264 3.257,-3.241 z"
           id="path246"
           style="fill:#3737c8;fill-opacity:1;stroke:none" />
        <path
           d="m 338.395,475.539 -6.528,-10e-4 0,6.587 6.528,-6.586 z m -2.312,1.01 -3.256,-0.023 0,3.264 3.256,-3.241 z"
           id="path248"
           style="fill:#3737c8;fill-opacity:1;stroke:none" />
        <path
           d="m 268.285,484.041 -6.527,-0.002 0,6.588 6.527,-6.586 z m -2.311,1.009 -3.257,-0.022 0,3.263 3.257,-3.241 z"
           id="path250"
           style="fill:#3737c8;fill-opacity:1;stroke:none" />
        <path
           d="m 288.128,484.041 -6.528,-0.002 0,6.588 6.528,-6.586 z m -2.312,1.009 -3.257,-0.022 0,3.263 3.257,-3.241 z"
           id="path252"
           style="fill:#3737c8;fill-opacity:1;stroke:none" />
        <path
           d="m 308.013,484.041 -6.527,-0.002 0,6.588 6.527,-6.586 z m -2.311,1.009 -3.257,-0.022 0,3.263 3.257,-3.241 z"
           id="path254"
           style="fill:#3737c8;fill-opacity:1;stroke:none" />
        <path
           d="m 327.432,484.041 -6.528,-0.002 0,6.588 6.528,-6.586 z m -2.312,1.009 -3.257,-0.022 0,3.263 3.257,-3.241 z"
           id="path256"
           style="fill:#3737c8;fill-opacity:1;stroke:none" />
        <path
           d="m 277.43,492.213 -6.527,-0.001 0,1.15 0.99,0.572 1.737,1.094 0.804,0.557 2.996,-3.372 z m -2.311,1.126 -3.257,-0.025 0,0.522 1.798,1.122 1.459,-1.619 z"
           id="path258"
           style="fill:#3737c8;fill-opacity:1;stroke:none" />
        <path
           d="m 297.656,492.213 -6.528,-0.001 0,6.588 6.528,-6.587 z m -2.312,1.01 -3.256,-0.023 0,3.264 3.256,-3.241 z"
           id="path260"
           style="fill:#3737c8;fill-opacity:1;stroke:none" />
        <path
           d="m 317.881,492.213 -6.527,-0.001 0,6.588 6.527,-6.587 z m -2.311,1.01 -3.257,-0.023 0,3.264 3.257,-3.241 z"
           id="path262"
           style="fill:#3737c8;fill-opacity:1;stroke:none" />
        <path
           d="m 288.128,500.746 -6.528,-0.002 0,2.894 2.281,1.393 4.247,-4.285 z m -2.312,1.009 -3.257,-0.022 0,2.45 0.517,0.3 2.74,-2.728 z"
           id="path264"
           style="fill:#3737c8;fill-opacity:1;stroke:none" />
        <path
           d="m 308.013,500.861 -6.527,-10e-4 0,6.587 6.527,-6.586 z m -2.311,1.01 -3.257,-0.023 0,3.264 3.257,-3.241 z"
           id="path266"
           style="fill:#3737c8;fill-opacity:1;stroke:none" />
        <path
           d="m 273.624,440.117 c -0.229,0.079 -0.485,0.411 -0.31,0.915 0.966,0.682 2.264,1.618 3.369,2.678 1.008,2.224 -0.448,3.383 -1.97,1.362 -0.817,-0.095 -1.105,0.787 -0.155,1.553 -0.01,1.115 0.199,2.468 0.689,3.635 0.49,1.167 1.275,2.153 2.417,2.527 0.407,-0.315 0.348,-0.394 -0.105,-0.953 -1.464,-0.787 -2.072,-2.732 -1.912,-4.105 0.517,-0.145 4.083,1.93 4.201,2.251 0.091,1.243 0.065,2.644 0.15,3.889 0.208,0.307 0.464,0.367 0.746,0.088 0,-0.841 -0.116,-2.724 -0.068,-4.31 0.047,-1.588 0.261,-2.886 0.924,-2.559 1.996,1.018 3.896,2.024 5.776,2.849 1.153,1.081 0.576,2.541 -0.978,1.874 -3.517,-3.972 -5.125,0.063 -2.775,3.811 0.48,0.122 0.635,-0.11 0.571,-0.693 -1.757,-3.332 -0.39,-4.807 1.633,-2.734 -0.763,3.148 2.925,6.448 4.592,3.49 0.047,0.748 0.053,2.25 0.1,3.002 0.289,0.185 0.604,0.302 0.823,-0.032 0,-1.234 0,-2.408 0,-3.581 0,-1.17 0,-2.342 0,-3.578 0.929,-0.066 1.826,0.087 2.69,0.457 0.097,0.928 0.166,1.817 0.026,2.613 -1.643,0.294 -0.201,4.19 1.063,1.617 0.742,0.01 1.484,0.076 2.227,0.082 0,1.202 0,2.343 0,3.54 0.245,0.146 0.448,0.149 0.619,0.004 0.026,-1.252 0.054,-2.507 0.08,-3.758 0.026,-1.253 0.053,-2.51 0.079,-3.765 1.586,-0.057 3.182,-0.185 4.635,-0.036 0.085,0.17 0.171,0.271 0.256,0.442 0.128,1.032 0.08,2.292 -0.006,3.303 -0.822,2.18 -3.031,1.186 -2.765,-0.27 -0.337,-2.615 2.316,-0.656 1.868,-2.488 -1.969,-0.58 -2.834,1.199 -2.589,2.926 0.321,1.521 1.223,2.318 3.427,1.646 0.086,0.545 -0.01,1.269 0.081,1.814 0.224,0.237 0.48,0.265 0.726,0.017 -0.027,-1.245 -0.006,-2.508 0.01,-3.772 0.017,-1.264 0.043,-2.53 0.021,-3.773 0.583,-0.298 0.988,-0.274 1.191,-0.402 0.15,-0.094 0.108,-0.377 0.033,-0.85 -2.281,0.569 -4.623,0.543 -6.834,0.323 -0.704,-1.308 -1.473,-2.484 -2.386,-3.646 -0.38,-0.061 -0.481,-0.034 -0.518,0.359 0.801,1.252 1.484,2.162 1.917,3.193 -4.064,-0.106 -7.89,-1.237 -11.301,-2.837 -2.194,-1.057 -4.32,-2.237 -6.353,-3.577 -2.044,-1.348 -4.015,-2.865 -5.915,-4.541 z m 4.447,4.865 c 0.646,0.032 1.889,0.906 1.889,1.674 0,0.769 0.14,1.741 -0.603,1.678 -0.747,-0.066 -1.766,-0.704 -1.794,-1.503 -0.021,-0.798 -0.144,-1.887 0.508,-1.849 z m 10.789,5.777 c 0.63,-0.079 1.126,0.191 1.681,0.499 0,1.164 -0.059,2.787 -0.38,3.341 -1.238,2.136 -3.895,0.275 -3.212,-1.469 1.189,0.342 1.964,-0.343 1.911,-2.371 z m 8.376,2.252 c 0,0.541 0.128,1.811 -0.273,1.922 -0.437,0.127 -0.951,0.082 -1.404,0.002 -0.267,-0.043 -0.635,-0.048 -0.641,-0.336 -0.01,-1.55 -0.213,-2.516 0.465,-2.53 0.832,-0.017 1.857,0.203 1.853,0.942 z"
           id="path268"
           style="fill:#3737c8;fill-opacity:1;stroke:#273785;stroke-width:0.21600001" />
        <path
           d="m 307.239,450.287 c -0.186,0.358 -0.054,0.604 0.171,0.802 1.057,-0.211 2.04,-0.484 3.096,-0.829 0.427,0.468 0.519,0.946 0.257,1.442 -0.919,0.709 -1.895,0.944 -2.889,1.049 -0.427,0.306 -0.289,0.611 -0.101,0.814 1.746,0.066 1.169,3.106 -0.155,2.969 -0.96,-0.194 -1.564,-0.71 -2.092,-1.546 -0.309,-0.068 -0.449,0.172 -0.278,0.618 0.492,1.282 1.506,1.815 2.386,1.914 1.927,-0.308 1.986,-1.617 1.891,-3.872 0.512,-0.698 1.051,-0.723 1.488,-0.081 0.081,1.217 0.102,2.431 0.177,3.647 0.234,0.435 0.469,0.285 0.705,0.05 -0.033,-1.222 -0.071,-2.423 -0.102,-3.619 -0.031,-1.199 -0.069,-2.398 -0.101,-3.621 1.025,-0.42 2.171,-0.969 3.197,-1.4 1.26,-0.095 0.908,2.011 -0.796,2.571 -1.115,0.364 0.272,5.601 4.175,1.031 0.011,0.585 0.021,1.243 0.033,1.832 0.24,0.292 0.565,0.301 0.736,-0.047 0.006,-1.241 0.006,-2.492 0.006,-3.74 0,-1.25 0,-2.499 0.004,-3.741 1.767,-1.401 3.769,-2.795 5.562,-4.565 0.204,0.349 0.167,1.626 0.075,2.084 -2.108,0.539 -3.415,1.997 -4.041,3.857 -0.929,2.776 2.013,5.56 1.714,3.094 -1.088,-0.502 -1.051,-2.281 -0.464,-3.723 0.586,-1.44 1.724,-2.55 2.845,-1.704 0.042,1.258 0.058,2.371 0.054,3.662 0.224,0.337 0.693,0.176 0.763,-0.182 -0.016,-1.302 -0.016,-2.556 -0.016,-3.805 0,-1.249 0,-2.498 -0.011,-3.803 0.065,-0.196 -0.091,-0.273 -0.037,-0.389 0.159,-0.352 0.529,-0.524 0.95,-1.058 0.081,-0.214 0.027,-0.655 -0.309,-0.745 -0.224,0.149 -0.7,0.722 -0.924,0.87 -0.704,-0.281 -1.378,-1.128 -2.055,-1.737 -0.561,0.016 -0.646,0.352 -0.587,0.755 0.545,0.516 1.399,1.405 1.938,1.911 -2.286,2.344 -5.038,4.345 -8.008,5.9 -2.953,1.547 -6.14,2.648 -9.257,3.335 z m 9.043,-2.115 c 0.811,-0.65 1.238,-1.026 1.527,-0.87 0.518,0.285 0.534,2.713 0.25,3.597 -0.496,1.562 -3.175,3.112 -2.839,0.777 0.769,-0.519 1.884,-1.076 1.062,-3.504 z"
           id="path270"
           style="fill:#3737c8;fill-opacity:1;stroke:#273785;stroke-width:0.21600001" />
        <path
           d="m 299.86,402.775 c 0.785,0.408 1.178,0 1.57,0 0.786,0 1.571,0 1.963,0.408 0.393,0.407 0.393,0.815 0.785,1.222 0,0.407 -0.392,1.222 0.393,1.63 0,0.407 0,0.407 0.393,0.815 0.392,-0.408 1.57,-0.408 1.963,-1.223 0.392,-0.407 0.785,-0.407 1.57,0 0.393,0 0.785,0.408 1.178,0.815 0,0.408 0,0.815 0.393,0.815 0.785,0 1.57,0 1.57,0.815 -0.393,1.222 1.963,2.037 0.785,3.26 -0.785,0.407 -1.178,1.222 -1.57,1.629 -0.785,0 -0.393,1.223 -1.178,0.815 -0.393,0 -0.393,-1.222 -0.785,-0.815 0,0.408 0.392,0.815 0.392,1.223 0.393,0.407 0,1.222 0.393,1.63 -0.393,0.407 0.785,1.222 0,2.037 0.393,0.815 -0.785,1.222 -0.393,2.037 -0.785,0.408 -0.392,0.815 -0.785,1.222 -0.393,0.815 -0.785,0.815 -0.785,1.63 -0.393,0.408 0,1.223 0,1.63 0,1.63 -1.178,2.852 0,4.482 0,0.408 0,0.815 0.392,1.222 0.393,0 1.178,-0.407 1.571,0.408 0,0.407 0.785,0.815 0.393,1.222 -0.393,0.815 0.392,0.815 0.392,1.222 1.178,0.408 0.393,1.63 1.571,2.445 0.392,0.815 -1.178,0.815 -0.786,2.038 0,0.407 -0.392,0.815 -0.392,1.222 -0.785,0.815 -1.178,1.222 -1.963,1.222 -0.393,0.408 0,0.815 -0.393,1.222 -0.785,0.408 -1.57,0.408 -2.355,0.408 -1.178,0 -2.356,0 -3.534,0 -0.392,0 0,0 -0.392,0 0,0 0,0 0,0 l 0,0 -7.853,0 0,0 c -0.392,0.408 -0.392,-0.408 -0.785,-0.408 -0.393,0 0,-0.814 -0.393,-1.222 -0.785,0 -1.177,0 -1.57,0 -0.785,-0.815 -1.178,-2.037 -1.178,-2.852 -0.392,-0.407 -0.392,-0.407 -0.392,-0.815 0,-0.407 0.392,-0.407 0.392,-0.815 0,-0.815 0,-1.629 0.393,-2.037 0.393,-0.408 0.393,-0.815 0.785,-0.815 l 0,0 0,-0.407 0,0 0,0 c 0,0 0,-0.408 0,-0.815 0.393,-0.408 0.393,-1.63 1.57,-1.223 -0.392,-0.407 0.393,-0.407 0.393,-0.407 0,-1.222 0.785,-2.445 0,-3.667 0,-1.223 -0.393,-2.445 0,-3.26 -0.393,-0.407 -0.393,-0.407 -0.785,-0.815 0.392,-0.407 -0.785,-0.815 -0.393,-1.222 -0.785,-0.407 -0.785,-1.222 -1.177,-2.037 -0.393,-0.408 0,-1.63 -0.393,-2.038 0.393,-0.407 0,-1.222 0.785,-1.629 -0.392,-0.815 0.393,-0.815 0.393,-1.63 -0.393,0 0,0 -0.393,0 0,0 0,0.815 -0.392,0.815 -0.786,0 -0.786,-0.815 -1.178,-0.815 -0.393,-0.408 -0.393,-1.222 -1.178,-1.222 0,-0.815 -0.785,-0.815 -0.393,-1.63 0,-0.815 0.785,-1.223 0.785,-2.038 0.393,-0.814 1.571,-0.814 1.964,-2.037 0.392,-0.815 1.177,-0.407 1.57,-0.815 0.785,-0.407 1.178,1.223 2.356,0.815 0,0 0.392,0 0.785,0 0,-0.407 0.392,-0.407 0.392,-0.815 0,-0.815 -0.392,-1.222 0,-2.037 0.393,-0.407 1.178,0 1.178,-0.407 0.393,0.407 0.785,-0.408 1.178,0 0.392,-0.408 0.785,0 1.178,-0.408 l 0,0 z m 0.785,0.408 c 0.393,0.407 0.393,0.815 0,1.222 0.785,0.407 1.963,0.407 2.356,1.222 0,0.815 0.785,1.223 0,1.63 -0.393,0 0,0.815 -0.393,0.408 -0.392,0 -0.392,-0.408 -0.392,-0.408 l 0,0 0.785,-0.815 0,0 c -0.393,0 -0.785,0 -0.785,0.408 -0.393,0 -0.393,-0.408 -0.786,-0.408 0.393,-0.407 0.393,-0.407 0.786,-0.407 0,0 0.392,0.407 0.392,0 -0.392,0 -0.392,-0.815 -0.785,-0.408 -0.393,0.408 -0.393,0.815 -0.785,0.815 0,-0.407 0.392,-0.815 0.392,-0.815 0.786,-0.407 0.786,0 1.178,0.408 0.393,-0.408 -0.392,-0.815 -0.392,-0.815 -0.786,-0.408 -1.178,0.407 -1.571,0.815 -0.392,0.407 0.393,0.815 0,1.222 l 0,0 -0.785,0 0,0 c 0,-0.407 0.393,-0.815 0,-1.222 0,-0.408 -0.393,-0.815 -0.786,-0.815 -0.785,0 -1.177,0.407 -1.177,0.815 0,0 0.392,-0.408 0.392,-0.408 0.393,-0.407 0.785,0 0.785,0 0,0.408 0.393,0.408 0.393,0.815 -0.393,-0.407 -0.785,-1.222 -1.178,-0.815 0,0.408 -0.785,0.408 -0.392,0.815 0.392,0 0.392,-0.407 0.785,-0.407 l 0,0 0.392,0.407 0,0 c 0,0.408 -0.785,0.408 -0.785,0.408 -0.392,-0.408 -0.392,-0.408 -0.785,-0.408 l 0,0 0,0 0,0 c 0.393,0.408 0.785,0.408 1.178,0.815 -0.393,0 -0.393,0.408 -0.785,0.815 0,0.407 0,0.815 0.392,1.222 0.393,0 0.393,0 0.393,0 l 0,0 0,0 0,0 c 0,-0.407 -0.393,0 -0.393,-0.407 l 0,0 0,0 0,0 c 0.393,0.407 1.178,0 1.571,-0.408 l 0,0 0,0 0,0 c 0,0 -0.393,0.408 -0.786,0 0,0.408 -0.392,0.408 -0.392,0 -0.393,0 -0.785,0 -0.393,-0.407 0,0.407 0.785,0.407 1.178,0.407 l 0,0 0,0 0,0 c -0.393,0 -0.785,-0.407 -1.178,-0.814 0.393,0 0,0 0.393,0 0,0.407 0.392,0.814 0.785,0.407 0,0 0,0.407 0.393,0 -0.393,0 -0.786,0 -1.178,-0.407 0,-0.408 0.392,-0.408 0.392,-0.408 0,0.408 0,0.408 0.393,0.815 0.393,0 0.786,0.407 1.178,0 l 0,0 0.393,0 0,0 c 0,0 0,0 0,0 0,0 -0.393,0 -0.393,0 0.393,0.407 0.785,0.407 1.178,0.407 0.393,0 0.393,-0.407 0.785,-0.407 0,0.407 -0.392,0.407 -0.392,0.407 -0.786,0.408 -1.178,0 -1.571,-0.407 l 0,0 0,0.407 0,0 c 0,0.408 0.393,0.408 0.785,0.408 0.393,0 1.178,0 1.178,-0.408 0,0 0,-0.407 0.393,-0.407 0,0 0,0.407 0,0.407 0,0 0,0.408 0,0.408 -0.393,0.407 0,0.815 -0.393,1.222 0,-0.407 0,0 -0.392,0 0,0 0.392,-0.407 0.392,-0.407 0,-0.408 0.393,-0.815 0.393,-1.223 -0.393,0.408 -0.785,0.815 -1.178,0.815 -0.785,0 -1.178,-0.407 -1.57,-0.815 -0.393,0.408 -1.179,1.223 -1.964,0.815 0,0 -0.392,-0.407 -0.785,-0.407 0.393,0 0,0.815 0.393,1.222 0.392,0 0.785,0 0.785,0.408 l 0,0 0,0.407 0,0 c -0.393,0 -0.393,-0.815 -1.178,-0.815 0,-0.407 0.393,-0.815 0,-1.222 0,-0.408 0.393,-0.408 0.393,-0.815 0,-0.815 -1.178,-0.815 -0.393,-1.63 0,-0.407 0,-0.815 0,-0.815 0.785,-0.815 1.57,-1.222 2.749,-1.222 l 0,0 0.392,0 0,0 c 0,-0.407 -0.392,-1.222 0,-1.222 l 0,0 z m 1.178,0 c -0.393,0.407 -0.393,0.815 -0.393,1.222 -0.392,-0.407 -0.392,-0.815 0,-0.815 0,-0.407 0,-0.407 0.393,-0.407 l 0,0 z m -2.356,0.407 c 0,0.408 0,0.408 0,0.815 -0.393,-0.407 -0.393,-0.815 -0.393,-1.222 0.393,0 0.393,0.407 0.393,0.407 l 0,0 z m 3.534,0 c 0.392,0.408 -0.785,0.408 -0.393,1.222 0.393,-0.407 0.393,0 0.785,0 -0.392,-0.407 -0.392,-0.407 -0.392,-0.814 l 0,0 0.392,0 0,0 c 0,0.814 0.785,1.222 0,1.629 0.393,0.408 0.393,0.815 0.785,1.223 0,0.407 -0.392,0.407 0,0.815 l 0,0 0,1.629 0,0 c 0,0 0,0.408 0,0.408 l 0,0 -0.392,-0.408 0,0 c 0,0.408 0,0.408 0,0.815 0,0 -0.393,0 -0.393,-0.407 0,0 -0.392,-0.408 0,-0.815 0,0 0,0 0,0 0,-0.408 0,-0.408 0,-0.815 0.393,0 0.393,-0.815 0.393,-1.222 l 0,0 -0.785,-0.815 0,0 c 0.392,-0.408 0.392,-0.815 0,-1.223 -0.393,0 -0.785,0 -0.785,-0.407 0,0 0,-0.407 0,-0.407 0.392,0 0.392,0 0.392,0 0,-0.408 0,-0.408 0,-0.408 -0.392,0 -0.392,0 -0.785,0 0,0 0.393,0 0.393,-0.407 0.392,0 0.785,0 0.785,0.407 l 0,0 z m -4.319,0 c 0,0.408 0,0.408 0,0.815 0,-0.407 -0.393,-0.407 -0.393,-0.815 0.393,0 0.393,0 0.393,0 l 0,0 z m -0.393,0.815 c 0,0 0,0 0,0 0,0 -0.392,-0.407 -0.785,-0.407 l 0,0 0,0 0,0 c 0,0.407 0.393,0.407 0.393,0.407 0,0 -0.393,-0.407 -0.393,-0.407 0,0.407 0,0.407 -0.392,0.407 0.392,0 0.392,0.407 0.392,0.407 0,0.408 0,0 0,0 l 0,0 0,-0.407 0,0 c 0,0 0,0.407 0,0.815 0,0.407 -0.392,0.815 -0.392,1.222 -0.786,0.815 0.785,2.445 -0.393,2.445 l 0,0 -0.393,0 0,0 c 0.393,-0.408 0,-0.815 0,-1.222 0,0 0.393,0 0.393,0 0,0.407 0,0.407 0,0.407 0.393,0 0.393,0 0.393,0 0,-0.407 -0.393,-0.815 -0.786,-1.222 0,-0.408 0,-0.815 0.393,-1.223 0.393,0 0.393,1.223 0.393,0.408 0,-0.408 -0.393,-0.815 0,-1.223 0,0 -0.393,0 -0.393,0 0,-0.407 0,-0.814 0.393,-0.814 0.392,-0.408 0.392,0 0.392,-0.408 0.393,0 0.785,0.408 0.785,0.815 l 0,0 z m 10.208,2.037 c 0,0 0,0.408 0.393,0.408 0,0 0.392,0 0.392,0 l 0,0 0,0 0,0 c 0,0 0,0 0,0 0,0 0,0.407 -0.392,0.815 -0.393,0 -0.393,-0.408 -0.786,0 0,0.407 0.786,1.222 0,1.222 -0.392,0 -0.392,0.407 -0.392,0.407 -0.393,0.408 0,0.408 0,0.815 -0.393,0 -0.393,-0.407 -0.393,-0.407 -0.392,-1.223 1.178,-0.815 0.785,-1.63 l 0,0 0,-0.407 0,0 c 0,0.814 -1.57,0.407 -1.177,1.629 l 0,0 -0.393,0 0,0 c 0,-0.815 0.393,-1.222 0.393,-1.629 l 0,0 0,0 0,0 c 0,0 0,0 -0.393,0 l 0,0 0,-0.408 0,0 c 0,-0.815 0.393,-1.222 0.785,-1.222 0.393,0 1.178,0 1.178,0.407 l 0,0 z m -14.526,1.223 c 0,0.407 -0.393,0.407 0,0.814 -0.393,0.408 0,0.815 -0.393,1.223 l 0,0 0,0 0,0 c 0,0 -0.393,0 -0.393,-0.408 0,0.408 0.393,0.408 0.393,0.815 0,0 0,0.408 0,0.408 -0.393,0 -0.393,-0.408 -0.785,-0.408 -0.393,0 -0.393,0 -0.393,-0.407 0.393,0.407 0.393,0.407 0.393,0.407 0,-0.407 0.392,-0.407 0,-0.407 0,-0.408 -0.393,-0.408 -0.393,-0.408 l 0,0 0,0 0,0 c 0.393,0 0.785,-0.407 0.785,-0.815 0,-0.407 0,-0.814 -0.392,-1.222 -0.393,0 -0.393,0 -0.393,0 0.393,0.408 0.393,0.815 0.393,1.222 0,0 -0.393,0.408 -0.393,0.408 0,-0.408 0.393,-0.408 0,-0.815 0,-0.407 -1.177,0 -1.177,-1.222 0.392,-0.408 1.177,0.407 0.785,-0.408 0,0 0,0 0.392,0 0,0 0.393,-0.407 0.785,-0.407 0.786,0 0.786,0.815 0.786,1.63 l 0,0 z m 1.178,-0.815 c -0.393,-0.408 -0.393,0.407 -0.786,0 l 0,0 0,-0.408 0,0 c 0,0 0.393,0.408 0.786,0.408 l 0,0 z m 0.785,0.407 0,0 0,0 c -0.393,0 -0.393,0 -0.785,-0.407 l 0,0 0,0 0,0 c 0.392,0 0.785,0 0.785,0.407 l 0,0 z m 10.208,-0.407 c 0,0.407 0.392,1.222 -0.393,1.629 -0.785,-0.407 -0.785,1.223 -1.178,0 0,-0.407 0.393,-1.222 0.785,-1.629 0.393,0.407 0.393,0 0.786,0 l 0,0 0,0 z m -4.712,0.815 c 0,0 0,0 -0.392,0 l 0,0 0,0 0,0 c 0.392,0 0.392,-0.408 0.392,-0.408 0.393,0 0.393,0.408 0,0.408 l 0,0 z m 4.319,0 c -0.393,0 -0.785,0.407 -0.785,0.407 l 0,0 0,0 0,0 c 0.392,0 0.392,-0.815 0.785,-0.815 l 0,0 0.393,0 0,0 c 0,0.408 0,0.408 -0.393,0.408 l 0,0 z m -9.815,0 c -0.393,0.814 0.392,0.814 0,1.222 0,0.407 0.392,0.815 0,0.815 0,0 -0.393,-0.408 -0.393,-0.815 0.393,0 0.393,-0.408 0.393,-0.815 -0.393,-0.407 -0.393,-0.815 -0.785,-0.407 0,0 0,0 0,0 0.392,0.407 0.392,0.407 0.392,0.814 l 0,0 0,0.408 0,0 c 0,-0.408 -0.392,-0.815 -0.785,-0.815 0,0 -0.393,0 -0.393,-0.407 l 0,0 0,-0.408 0,0 c 0.393,0 1.178,0 1.571,0.408 l 0,0 z m 6.282,0.407 c 0,0 -0.393,0 -0.786,0 0,0 -0.392,0 -0.392,0 0,0 0.392,0 0.785,-0.407 0,0 0,0 0.393,-0.408 0,0.408 0,0.408 0,0.815 l 0,0 z m 9.029,0 0,0 0,0 c 0,0 -0.392,0 -0.392,0 -0.393,0.407 -0.785,0.815 -0.785,1.63 0.392,0 0.392,0 0.785,0 l 0,0 0,0.815 0,0 c -0.785,-0.408 -1.571,-0.408 -1.963,0 l 0,0 0,-0.408 0,-0.815 0,0 c 0.392,-0.407 0.785,0 1.178,0 0,0 0,0 0,-0.407 -0.393,-0.815 -1.571,0.407 -1.178,-0.815 0.392,0 0.392,-0.815 1.178,-0.407 0.392,0 0.785,0 1.177,0.407 l 0,0 z m -19.237,0 0,0.407 0,0 c 0,0.408 -0.785,0 -0.785,0.408 0.392,0.407 0.785,0.407 0.785,0.815 0.392,0.407 -0.393,1.222 0,1.63 0,0.407 0,0.815 0,1.222 -0.785,0.407 -0.785,0.815 -1.178,1.222 -0.393,-0.407 0,-0.815 -0.393,-0.815 0,-0.407 0.393,0 0.786,0 0.392,-0.407 0.392,-0.814 0.392,-1.222 -0.392,-0.407 -0.785,-0.815 -0.785,-1.222 0.393,0 0.393,0.407 0.785,0 l 0,0 0,-0.408 0,0 c 0,0 -0.392,0.408 -0.392,0 -0.393,0 -0.786,0 -1.178,0 0,-0.407 0,-0.815 0.785,-0.815 0,-0.407 -0.393,-0.815 -0.393,-0.815 -0.392,-0.407 -0.785,0 -0.785,0.408 -0.393,0 0,0.407 0,0.815 l 0,0 0.393,-0.408 0,0 c 0,0.815 -1.178,0.815 -0.786,1.63 -0.392,0 -0.392,0.408 -0.392,0 -0.785,-0.407 0.392,-0.815 0.392,-1.63 -0.392,-1.222 1.178,-0.815 1.571,-1.629 0.393,0 0.785,0.407 1.178,0.407 l 0,0 z m 3.141,0.815 c 0,0.407 0.392,0.815 0.392,1.222 -0.392,0 -0.392,0 -0.392,0 0,-0.407 0,-0.815 -0.393,-0.815 0,0 -0.393,0 -0.785,-0.407 l 0,0 0,-0.815 0,0 c 0.392,0.407 0.785,0.407 1.178,0.815 l 0,0 z m 9.029,-0.815 c -0.392,0 -0.392,0.407 -0.392,0.407 l 0,0 0.392,0 0,0 c -0.392,0 0,0.408 -0.392,0 0.392,0.408 -0.393,-0.407 0,-0.407 l 0,0 0.392,0 z m 6.282,0.407 -0.392,0 0,0 c 0.392,0 0.392,-0.407 0.392,-0.407 0,0 0,0 0,0.407 l 0,0 z m -4.318,0.815 c -0.786,-0.407 -1.178,1.223 -1.178,0.408 0,-0.408 0.392,-0.815 0.392,-0.815 0.393,0 0.786,0 0.786,-0.408 0,0.408 0,0.815 0,0.815 l 0,0 z m 6.281,1.223 -0.392,0 0,0 c 0,0 -0.393,-0.408 -0.786,-0.408 0,0 0,-0.407 -0.392,-0.407 0,0 0.392,0 0.392,0 0.393,-0.408 0,-0.815 0,-0.815 0,0.815 1.178,0.815 1.178,1.63 l 0,0 z m -22.378,-1.63 c 0,0 0,0.407 0,0 0,0 0,0 0,0 l 0,0 z m 20.808,0 c 0.392,0 0,0.407 0,0.407 l 0,0 -0.393,0 0,0 c 0,-0.407 0.393,-0.407 0.393,-0.407 l 0,0 z m -6.282,1.63 0,0 0,0 c 0.393,0.815 -0.393,1.222 0,1.63 0,0 0,-0.408 0,-0.408 l 0,0 0.393,-0.407 0,0 c 0,0.407 0,0.815 -0.393,1.222 0,0.407 0,0.407 0,0.407 0.393,0 0.393,0 0.785,-0.407 0,0.815 -0.785,1.222 -0.392,1.63 l 0,0 0.392,-0.408 0,0 c 0.393,0.408 -0.392,0.815 0,1.223 0,0 0.393,-0.408 0.393,-0.815 0.393,0.815 0,0.815 -0.393,1.222 0,0.815 0,1.222 0.393,1.63 0,0 0,0 0,0 0.393,0.408 0.393,0.408 0.393,0.815 0,0.407 -0.393,0.407 -0.393,0.815 l 0,0 0,0.407 0,0 c 0,0 -0.393,0 -0.393,-0.407 0,-0.408 0.393,-0.815 0.393,-1.222 l 0,0 0,0 0,0 c -0.393,0 -0.393,0.407 -0.393,0.407 0,-0.407 0.393,-1.223 0,-1.63 0,-0.407 0,-1.222 -0.392,-1.63 0,-0.407 -0.786,-0.815 -0.393,-1.63 -0.393,-0.407 -0.393,-0.814 -0.393,-1.222 0,-0.815 0.393,-1.63 0.393,-2.445 l 0,0 0,0 0,0 c 0,0.408 0,0.815 0,1.223 l 0,0 z m -7.067,-0.408 c 0,-0.407 0,-0.407 0,-0.815 0,0.408 0,0.815 0,1.223 0,0 0,0.407 -0.392,0.407 0,-0.815 -0.786,-0.815 -0.786,-1.222 0.393,-0.408 0.786,-0.408 0.786,-0.408 0.392,0 0,0.408 0.392,0.815 l 0,0 z m 10.993,-0.815 c -0.393,0.408 0,1.223 -0.785,1.223 -0.393,0 -0.393,0.407 -0.785,0.407 -0.393,0 0,-0.407 0,-0.815 0.392,0 0.785,0.408 1.177,0 0,-0.407 0,-0.815 0.393,-0.815 l 0,0 z m -7.459,0.408 c -0.393,0 -0.393,0.407 -0.393,0.407 0,0 -0.392,0 -0.392,0 0,0 0,0 0.392,0.408 0,0 0.393,-0.408 0.393,-0.815 0.392,0.407 0,0.407 0,0.407 -0.393,0.408 -0.785,0.408 -1.178,0 -0.393,0 -0.393,0 -0.393,-0.407 0.393,0 0.393,0 0.786,0 0,-0.408 0.392,0 0.785,0 l 0,0 z m 4.711,0.815 c -0.393,0 -0.393,-0.408 -0.393,-0.408 0,-0.407 0.393,-0.407 0.786,-0.407 0,0 0.392,0.815 -0.393,0.815 l 0,0 z m -10.208,0 c 0,0 0,0.407 -0.392,0.407 -0.393,0 -0.393,-0.407 -0.393,-0.407 -0.393,0 -0.393,0 -0.785,0 l 0,0 0.392,-0.815 0,0 c 0.393,0 0.393,1.222 1.178,0.815 l 0,0 z m 5.104,0.407 c 0.393,-0.407 0.785,-0.815 1.178,-0.815 0,0.408 0.393,0.815 0,1.223 -0.393,0 -0.785,0 -1.178,0 0.393,0 0.393,0 0.393,0 -0.393,-0.408 -0.785,0 -1.178,0 -0.393,0 -0.786,0.407 -1.178,-0.408 l 0,0 0.392,-1.222 0,0 c 0.393,0.407 0.786,1.222 1.571,1.222 l 0,0 z m -4.319,-0.407 c -0.392,0.407 0,0.407 -0.392,0.815 0,-0.408 -0.393,-0.815 -0.393,-1.223 0.393,0 0.393,0.408 0.785,0.408 l 0,0 z m 3.927,-0.408 c 0,0.408 -0.393,0 -0.393,0 l 0,0 0.393,0 0,0 z m -10.208,0.815 c 0,0 0,0.408 -0.393,0.408 0,0 0,0 -0.393,0 0,0 0,0 0,0 l 0,0 -0.392,0 0,0 c 0.392,-0.408 0.785,-0.408 1.178,-0.815 0,0 0.392,0 0.392,0 0,0 0,0 -0.392,0.407 l 0,0 z m 12.171,-0.407 0,0 0,0 0,0 0,0 z m -0.786,0.407 c 0,0 0.393,-0.407 0.393,-0.407 0,0 0,0.407 -0.393,0.407 l 0,0 z m 2.356,0 c 0.392,0.815 -0.785,0.815 -0.785,1.223 l 0,0 -0.393,0 0,0 c 0.393,-0.408 -0.392,-0.408 0,-0.815 0,0 0,0 0,0 0,-0.408 0.393,-0.408 0.393,-0.408 0.392,0.408 0,0.408 0.392,0.815 0,-0.407 0.393,-0.407 0,-0.407 0,0 0,-0.408 0,-0.408 0,0 0,-0.407 0,-0.407 l 0,0 0,0 0,0 c 0,0 0.393,0 0.393,0.407 l 0,0 z m 8.245,0 c 0,0 0,0 0,0.408 -0.393,-0.408 -0.393,-0.815 -0.786,-0.815 0.393,0 0.393,0 0.786,0.407 l 0,0 z m -18.846,0 c 0,0.408 0.786,0.815 0,1.63 0.393,-0.407 0,-0.815 0,-1.222 -0.392,0 -0.785,-0.408 -0.785,-0.408 l 0,0 0,-0.407 0,0 c 0,0 0.393,0.407 0.785,0.407 l 0,0 z m 15.705,0.815 c 0,0 0,0.408 0.392,0.815 l 0,0 0.786,-0.407 0,0 c -0.393,0.407 0.392,1.222 0,1.222 -0.786,0 -0.786,-1.222 -1.178,-0.815 -0.393,-0.407 0,-1.222 0,-1.63 0,0 0.392,0 0.392,-0.407 0.393,0.407 0,0.815 -0.392,1.222 l 0,0 z m -13.741,0 c 0,-0.407 0.392,0 0.392,0 0,0 0,0.408 -0.392,0.408 -0.393,0 -0.393,-0.408 -0.393,-0.408 -0.393,0 -0.785,-0.407 -0.785,-0.407 0,0 0,0.407 0,0.407 0,0.408 0.785,0.408 1.178,0.815 0,0 0,0.407 0,0.407 0,0 0,0.408 -0.393,0.408 0,-0.815 -1.178,-0.408 -0.785,-1.63 0,0 0,0 -0.393,-0.407 l 0,0 0.393,-0.815 0,0 c 0.392,0.815 0.785,0.815 1.178,1.222 l 0,0 z m 14.526,-0.407 0,0 0,0 c 0,-0.408 0,-0.408 0.393,-0.815 0,0.407 0,0.407 -0.393,0.815 l 0,0 z m -16.097,-0.408 c 0,0 -0.393,0 -0.393,0 0,0 0,0 0,0 0.393,0 0.393,0 0.393,0 l 0,0 z m 3.926,0.408 0.393,0 0,0 c 0,0 0,0 0,0 0,0.407 0,0 0.392,0 0,0.407 -0.392,0.407 -0.392,0.407 l 0,0 -0.393,0.815 0,0 c -0.392,-0.407 0,-1.222 -0.785,-1.222 0,-0.408 0,-0.408 0,-0.408 l 0,0 0.393,0.408 0,0 c 0.392,0 0.392,-0.408 0.392,-0.408 0,0 0,0.408 0,0.408 l 0,0 z m 8.638,0 c -0.393,0 -0.393,0.407 -0.786,0.815 -0.392,-0.408 0.393,-0.815 0.393,-1.223 0,0 0.393,0 0.393,0 l 0,0 0,0.408 z m 1.962,0.407 c -0.392,0.408 -1.177,0.408 -0.785,0.815 -0.392,0 -0.392,-0.407 0,-0.407 0,-0.408 0.393,-0.408 0.393,-0.815 l 0,0 0.392,-0.408 0,0 c 0,0.408 0,0.815 0,0.815 l 0,0 z m 3.141,-0.407 -0.392,-0.408 0.392,0 0,0.408 z m -20.022,0.407 c 0,0 -0.393,0 -0.393,0 0.393,0 -0.393,-0.407 0,-0.815 0,0.408 0.393,0.408 0.393,0.815 l 0,0 z m -1.571,-0.407 0,0 -0.393,0 0,-0.408 0,0 c 0.393,0 0.393,0 0.393,0.408 l 0,0 z m 0.785,0 -0.392,0 0.392,-0.408 0,0 c 0,0.408 0,0.408 0,0.408 l 0,0 z m 9.423,0 c 0.393,0 0,0 0,0 0,0 0,0 0,0 l 0,0 z m -3.926,0.407 c 0.392,0 0.392,0 0.392,-0.407 l 0,0 0,0.407 0,0 c -0.392,0.408 0.393,0.815 -0.392,1.222 0.392,0.815 -0.393,0.815 -0.393,1.63 -0.392,0.408 0,0.815 -0.392,1.223 0.392,0.814 -0.393,1.222 0,1.63 l 0,0 0,0.407 0,0 c 0,-0.407 -0.393,-1.223 -0.393,-1.63 0,0 0,-0.407 0,-0.407 0,0 0.393,0.407 0.393,0 0,-0.408 -0.393,-0.815 0,-1.223 l 0,0 0,0.408 0,0 c 0.392,-0.408 0,-0.815 0,-1.223 0,0 0,-0.407 0,-0.407 0.392,0 0.392,0.407 0.392,0.407 0,-0.407 0,-0.815 0,-1.222 l 0,0 0,0 0,0 c 0,0 0,0.407 0.393,0.407 0.392,-0.407 -0.393,-0.814 -0.393,-1.629 0.393,0 0.393,0.407 0.393,0.407 l 0,0 z m 15.311,0 0,0 0,0 c 0,0 0,0 -0.392,0 l 0,0 0.392,-0.407 0,0 c 0,0 0,0 0,0.407 l 0,0 z m -20.808,-0.407 c 0,0.407 0,0.407 0,0.407 0,0 0,-0.407 0,-0.407 l 0,0 z m 19.238,0.407 c 0,0 0,0 0,0 l 0,0 0.393,0 0,0 c 0,0.408 0.392,0 0.392,0.408 0,0.407 0.393,0.407 0,0.407 0,0 0,-0.407 -0.392,-0.407 -0.393,0 -0.786,0 -0.786,-0.408 l 0,0 0.393,0 z m -16.097,1.222 c 0,0.408 0,0.815 -0.393,0.815 l 0,0 0,0 0,0 c 0.393,-0.815 -0.785,-1.222 -0.785,-2.037 0.785,0.408 0.393,1.222 1.178,1.222 l 0,0 z m 8.638,0 c 0,0 -0.393,0.408 -0.393,0.408 0,-0.408 0,-0.815 0,-1.222 l 0,0 0,0.407 0.393,-0.815 0,0 c 0.392,0.408 0,0.815 0,1.222 l 0,0 z m 4.318,-1.222 c 0.393,0.815 -0.785,0.408 -0.785,1.222 0,0.408 0,0 0,0 0,-0.407 0.393,-0.407 0.393,-0.814 0,0 0.392,-0.408 0.392,-0.408 l 0,0 z m -16.489,0.408 c 0,0 0.392,0 0.392,0 l 0,0 0,0.407 0,0 c 0,0 -0.392,-0.407 -0.392,0 0,-0.407 -0.393,-0.407 0,-0.815 l 0,0 0,0.408 z m 8.244,0 0,0 0,0 c 0.393,0 0.393,0 0.785,0.407 l 0,0 0,-0.407 0,0 c 0,0.407 -0.392,0.814 0,1.222 -0.392,0 -0.785,-0.408 -0.785,-0.408 0,-0.407 -0.785,-0.407 -0.392,-0.814 0.392,0 0.392,0 0.392,0 l 0,0 z m -7.459,0 c 0,0 0,0 0,0 0,0 0,0 0,0 l 0,0 z m 10.6,0.407 c 0,0 0,0.407 0,0.407 -0.392,0.408 -0.392,0.408 -0.785,0.408 l 0,0 0,-0.408 0,0 c 0,0 0,0 0,-0.407 l 0,0 0,0 0,0 c 0,-0.407 0,0 0.393,-0.407 0,0.407 0,0.407 0.392,0.407 l 0,0 z m -1.57,0 c 0,0 0,0 0.393,0 -0.393,0 -0.393,0 -0.393,0.407 0,0 0.393,0 0.393,0.408 -0.393,0 -0.786,0 -0.786,-0.408 0,0 -0.393,-0.407 0,-0.407 0,0 0.393,0 0.393,0 l 0,0 z m -2.748,0.407 c 0,0 0,0 0,0 l 0,0 0,-0.407 0,0 c 0,0 0,0 0,0.407 l 0,0 z m 10.992,0.815 c 0.393,0 0.393,0 0.393,0 0.393,0 0,0.408 0,0.815 l 0,0 0.393,0 0,0 c -0.393,0 -0.393,0 -0.786,-0.407 0.393,0 0.393,-0.408 0,-0.408 -0.392,0.408 -0.392,0 -0.392,0 0,-0.407 0,-1.222 0.392,-1.222 0.393,0.407 -0.785,1.222 0,1.222 l 0,0 z m -13.348,0.408 c 0,0 -0.393,0.407 -0.393,0 0,0 0,0 0,0 0,0 0,-0.408 0,-0.408 -0.392,-0.407 -0.785,-0.815 -0.785,-1.222 l 0,0 0.393,0 0,0 c 0.392,0.407 0.785,0.815 0.785,1.63 l 0,0 z m 9.03,-0.815 0,0 0,0 c 0,0 0,-0.408 0,-0.408 0,0 0.392,0 0,0.408 l 0,0 z m 3.141,0 c -0.393,0 -0.785,0 -0.785,0.407 0.392,0 0.785,0 1.177,-0.407 0.393,0.815 -0.785,0.815 -0.785,1.63 l 0,0 0.393,0 0,0 c 0,-0.408 0.392,-0.408 0.785,-0.815 0,0.407 0.392,0.407 0,0.407 0,0.408 -0.393,0.815 -0.393,1.223 l 0,0 0.393,0 0,0 c 0.392,0 0,-0.815 0.785,-0.815 l 0,0 0,0 0,0 c 0,0.815 -1.178,0.815 -0.393,1.629 0.393,0 0.393,-0.407 0.393,-0.407 l 0,0 0.393,-0.815 0,0 c 0.392,0.408 -0.786,1.222 0,1.63 l 0,0 0.392,-0.815 0,0 c 0.393,0.815 -0.785,1.223 0,1.63 0,0 0,0 0,0 -0.392,0 -0.392,-0.407 -0.785,-0.815 -0.393,-0.408 -0.785,-0.815 -1.178,-1.222 0,-0.408 -0.785,-0.408 -0.785,-1.223 0,-0.407 -0.785,-0.815 -0.392,-1.222 0,-0.408 0.785,-0.815 0.785,0 l 0,0 z m -14.134,0 c 0,0 -0.393,0 -0.393,0.407 0,0.408 1.571,0.815 0.393,1.223 0,0 0,0 0,0 -0.393,0.407 0.392,0.407 0.392,1.222 -0.392,0 -0.392,0 -0.785,0 l 0,0 0,0 0,0 c 0,-0.407 0.393,-0.407 0,-0.815 0,0 -0.392,-0.407 -0.392,-0.815 0.392,0 0.392,0.408 0.785,0.408 0,0 0,-0.408 0,-0.408 -0.393,-0.407 -0.785,-0.815 -0.393,-1.222 -0.392,-0.408 0.393,0 0.393,0 l 0,0 z m 10.208,0.407 c 0,0 0,0 0,0 0,0 -0.393,-0.407 0,-0.407 0,0 0.392,0.407 0,0.407 l 0,0 z m -5.497,0.408 c 0,0 0,0 -0.392,0 -0.393,-0.408 0.392,-0.408 0.392,-0.815 0.393,0 0.393,0.407 0,0.815 l 0,0 z m -0.392,-0.815 -0.393,0.407 0,0 c 0,0 0,-0.407 0,-0.407 0,0 0,0 0.393,0 l 0,0 z m -0.786,0 c 0,0.407 0,0.407 0,0.815 l 0,0 0,-0.815 0,0 z m 7.852,0.815 c 0,0 0.393,0.407 0,0.407 0,-0.407 -0.392,-0.407 -0.392,-0.815 0.392,0 0.392,0 0.392,0.408 l 0,0 z m -5.104,-0.408 c -0.392,0.408 -0.785,0.815 -0.785,1.223 -0.392,0 -0.392,-0.408 -0.392,-0.408 0.392,-0.407 0.392,-1.222 0.785,-0.815 l 0,0 0.392,0 z m 3.927,0.815 c 0,0 0,0 0,0.408 l 0,0 0,0 0,0 c 0,-0.815 -1.178,-0.408 -1.178,-1.223 l 0,0 0,0 0,0 c 0.393,0 0.393,0.815 1.178,0.815 l 0,0 z m -1.178,0.408 c 0.393,0 0.393,0.407 0,0.407 l 0,0 0,0 0,0 c 0,-0.815 -1.178,-0.815 -1.178,-1.63 0,0.408 0.393,0 0.393,0 0.392,0.408 0.785,0.815 0.785,1.223 l 0,0 z m -7.46,-0.408 c 0.393,0.408 0.393,0.408 0.393,0.815 -0.393,0 -0.785,0 -0.785,0.408 0,0 0.392,0.407 0.392,0.814 0,0 -0.392,0 -0.785,0 0.393,0.408 0.393,0.408 0.393,0.816 0,0.407 -0.393,0.407 -0.393,0.407 0,0.407 0.393,0.407 0.393,0.815 -0.393,0.407 -0.393,0.407 -0.393,0.407 0,-0.407 0,-0.407 0,-0.815 -0.393,0 -0.785,0 -0.785,-0.407 0,-0.407 0,-0.407 0,-0.407 l 0,0 0.785,0.407 0,0 c 0,0 0.393,-0.407 0,-0.815 0,0 -0.393,0 -0.393,-0.408 0,0 0,-0.407 0,-0.407 0.393,0 0.393,0.407 0.786,0 0,-0.407 -0.393,-0.407 -0.786,-0.815 0.393,0 0,-0.407 0.393,-0.407 0,0 0,0.407 0.393,0.407 0.392,-0.407 -1.178,-1.222 0,-1.63 0,0.408 0,0.815 0.392,0.815 l 0,0 z m 5.497,-0.815 c 0.393,0.408 0,0.815 0,0.815 -0.393,0.408 -0.786,0.408 -0.786,0.408 l 0,0 -0.392,0 0,0 c 0.392,-0.408 0.785,-1.223 1.178,-1.223 l 0,0 z m 3.926,0.815 c 0,0 0,0.408 -0.393,0.408 l 0,0 0,0 0,0 c 0.393,-0.408 -0.785,-0.815 0,-1.223 l 0,0 0.393,0.815 z m -7.067,0 c 0.393,0.408 -0.393,0.408 -0.393,0.408 0,-0.408 0,-0.408 0.393,-0.815 0,0 0,0.407 0,0.407 l 0,0 z m -0.785,0 c 0.392,0 0,0.408 0,0.408 l 0,0 0,0 0,0 c -0.393,0 0,-0.408 0,-0.408 l 0,0 z m 5.889,1.63 c 0,0 0,0 0,0 0,0.407 0,0.407 -0.393,0.407 0,-0.407 -0.392,-0.814 -0.392,-0.814 -0.393,0 -0.785,-0.408 -0.785,-0.815 0,0 0.392,0 0.392,-0.408 0.393,0.408 0.785,0.815 1.178,1.63 l 0,0 z m -4.319,-1.222 c 0,0.407 -0.392,0.815 -0.392,1.222 0,-0.407 0,-0.407 0,-0.815 0,-0.407 0.392,-0.407 0.392,-0.815 0,0 0,0.408 0,0.408 l 0,0 z m 7.067,0 c 0,0 0,0.815 -0.393,0.815 0,0 0,0 0,0 0,-0.408 0.393,-0.408 0.393,-0.815 -0.393,0 -0.393,0.407 -0.785,0.407 0,0 0.392,0.408 0,0.408 0,0 -0.785,-0.408 -0.393,-0.815 l 0,0 0.393,0.407 0,0 c 0,-0.407 0.392,-0.815 0.785,-0.407 l 0,0 z m -1.178,1.222 -0.392,0 0,0 c 0,-0.407 -0.785,-0.407 -0.393,-1.222 0,0.407 0.785,0.815 0.785,1.222 l 0,0 z m -3.14,-0.815 c 0,0.815 -1.179,0.815 -0.786,1.63 l 0,0 -0.785,0 0,0 c 0,-0.408 0,-0.408 0,-0.815 0.785,0 0.392,-1.222 1.178,-0.815 l 0,0 0.393,0 z m 5.889,1.222 0.392,-0.814 0,0 c 0.785,0.814 -0.392,1.63 0.393,2.037 0,-0.407 0.392,-0.815 0.392,-1.223 0.785,0.816 -0.785,1.223 0,2.038 -0.392,0 -0.392,-0.815 -0.785,-0.815 -0.392,-0.815 0,-1.223 -0.785,-1.223 0,-0.407 0,-0.814 0,-0.814 l 0,0 0.393,-0.408 0,0 c 0.392,0.408 -0.393,0.815 0,1.222 l 0,0 z m -13.742,0.408 c 0.393,0 0,0.408 0,0.408 l 0,0 0,0 0,0 c 0,-0.816 -1.177,-1.223 -0.785,-2.038 0.785,0.408 0.393,1.222 0.785,1.63 l 0,0 z m 3.534,-1.222 c 0,0 0,0.407 -0.393,0 0,0 0.393,0 0.393,-0.408 0,0 0,0.408 0,0.408 l 0,0 z m 2.355,-0.408 c 0,0.408 -0.392,0.815 0,1.222 -0.392,0 -0.392,0 -0.392,-0.407 0,-0.407 0,-0.407 0,-0.815 0.392,0 0.392,0 0.392,0 l 0,0 z m -1.57,0.815 -0.393,0.407 0,0 c -0.392,-0.407 0,-0.814 0.393,-1.222 0,0.408 0,0.408 0,0.815 l 0,0 z m 6.282,1.223 c -0.393,0 0,-0.408 -0.393,-0.816 -0.392,0 0,-0.407 -0.392,-0.814 l 0,0 0,0 0.392,0 0,0 c -0.392,0.814 0.785,0.814 0.393,1.63 l 0,0 z m -1.963,-0.816 c 0.392,0.408 1.57,0.816 0.392,1.223 l 0,0 0,0 0,0 c 0,-0.407 0,-0.815 -0.392,-0.815 0,0 -0.393,-0.408 -0.785,-0.408 l 0,0 0,-0.407 0,0 c 0.392,0 0.785,0 0.785,0.407 l 0,0 z m 3.926,-0.407 c 0,0.407 -0.393,0.407 -0.393,0.407 0,0 0,-0.407 0,-0.407 0,-0.407 0.393,-0.407 0.393,0 l 0,0 z m -9.03,0.815 c -0.393,-0.408 -0.393,-0.408 0,-0.815 l 0,0 0,0 0,0 c 0,0.407 0,0.407 0,0.815 l 0,0 z m 1.57,-0.815 c 0,0.815 -0.392,0.815 0,1.223 -0.392,0 -0.392,0 -0.392,0 0,-0.408 0.392,-0.816 0.392,-1.223 l 0,0 z m 3.141,1.223 c 0.393,0 0.785,0 0.785,0.407 0,0.407 0.393,0.407 0.393,0.407 0.393,0.408 0,0.408 0,0.815 l 0,0 -0.393,0 0,0 c 0.393,-0.407 0,-0.815 -0.392,-0.815 -0.785,-0.407 -0.785,-0.814 -1.178,-1.222 0,0.815 -0.786,0.815 -0.393,1.222 -0.393,0.408 -0.393,0 -0.393,0 -0.392,-0.814 0.786,-0.814 0.393,-1.63 0.393,0 0.393,0 0.786,-0.407 -0.393,0.407 0,0.815 0.392,1.223 l 0,0 z m 3.533,-0.408 c 0,0 0,0 0,0.408 0,-0.408 -1.177,-0.816 -0.392,-0.816 l 0,0 0.392,0.408 z m -5.496,0.408 c -0.393,0.407 -0.785,0.407 -0.785,0.814 l 0,0 0.392,0 0,0 c 0,0 -0.392,0 -0.392,0 0,0 0,-0.407 0,-0.814 l 0,0 0.392,-0.816 0,0 c 0,0 0.393,0.408 0.393,0.816 l 0,0 z m -6.674,0.407 0,0.407 0,0 0,0 c 0,-0.814 -0.785,-0.814 -0.393,-1.63 0.393,0 0.393,0.816 0.393,1.223 l 0,0 z m 4.318,0 c -0.392,-0.407 0,-0.815 0.393,-0.815 0,0 -0.393,0.408 -0.393,0.815 l 0,0 z m 8.638,-0.815 c 0,0.408 0,0.408 0,0.408 -0.393,0 -0.786,-0.408 -0.393,-0.408 0.393,-0.408 0.393,0 0.393,0 l 0,0 z m -10.208,0.815 c 0,0 0,0.407 0,0.407 0.393,-0.814 -0.393,-0.814 0,-1.222 0,0.408 0.393,0.408 0,0.815 l 0,0 z m 8.245,0.815 -0.393,0.407 0,0 c 0.393,0 0.393,0.408 0.393,0.408 l 0,0 0,0.407 0,0 c 0,-0.407 -0.393,-0.815 -0.393,-0.815 -0.392,0 0,-0.815 -0.392,-0.815 0.392,0 0.392,0.408 0.392,0.408 0.393,0 0.393,0 0.393,0 0,-0.815 -0.785,-0.815 -0.785,-1.63 l 0,0 0,0 0,0 c 0.392,0.408 1.177,0.815 0.785,1.63 l 0,0 z m -7.067,-1.222 0,0 0,0 c -0.393,0 -0.393,0 -0.393,0 0,0 0,-0.408 0.393,0 l 0,0 z m 12.17,1.629 c 0.393,-0.407 0.393,-0.815 0.786,-1.222 0,0 0,0.407 0,0.815 -0.393,0 -0.393,0.407 -0.393,0.815 0,0 0.393,0 0.393,0 -0.393,0.407 -0.786,0 -1.178,-0.408 0,0 -0.393,-0.815 0,-1.222 l 0,0 0.392,-0.407 0,0 c 0.393,0.407 -0.392,1.222 0,1.629 l 0,0 z m -3.926,-0.407 c 0,-0.408 -1.177,-0.815 -0.785,-1.222 0.393,0.407 0.785,0.814 0.785,1.222 l 0,0 z m -9.815,-0.408 -0.392,0 0,-0.407 0,0 c 0.392,0 0.392,0 0.392,0.407 l 0,0 z m 2.356,-0.407 c 0.393,0.407 0,0.407 0,0.815 0,0 0,0.407 -0.393,0.407 0,-0.407 0,-0.815 0.393,-1.222 l 0,0 z m 0.785,0 c 0,0.407 -0.392,0.815 0,1.222 0,0 -0.392,0 -0.392,0 0,-0.407 0.392,-0.815 0.392,-1.222 l 0,0 z m -5.889,0.407 c 0.393,0 0.393,0.408 0.393,0.815 0,0 0,0 0,0 -0.393,0 0,-0.407 -0.393,-0.407 0,-0.408 -0.392,-0.408 0,-0.815 0,0 0,0.407 0,0.407 l 0,0 z m 4.319,0.815 c -0.393,-0.407 -0.393,-0.815 -0.393,-1.222 0.393,0.407 0.393,0.815 0.393,1.222 l 0,0 z m 8.637,-0.815 0,0.408 0,0 0,-0.815 0,0 c 0,0 0,0.407 0,0.407 l 0,0 z m 0.785,1.63 c 0,0.815 -0.785,0.815 -0.785,1.63 0.785,0 0.785,0.815 1.178,0.815 0.785,1.63 0.393,3.667 0.393,5.297 0,0 0,0.407 0.392,0.407 0,-1.63 0.393,-3.26 0,-5.297 0.393,0 0.393,0.408 0.393,0.408 0.392,1.629 -0.393,3.259 0,4.482 0.392,0.815 0,1.63 0.392,2.037 0,0 0,0 0,-0.407 -0.392,0.407 0,0.814 0.393,0.814 -0.785,0 -0.785,-1.222 -1.178,-1.629 l 0,0 0,0 0,0 c 0,0.815 0,1.629 0.785,2.037 0.393,0 0,0.407 0.393,0.407 0,0.408 0.785,0.408 0.392,0.815 0,0 0,0.408 0,0.408 0,-0.408 0,-0.408 0,-0.408 -0.392,0 -0.392,0 -0.392,0 0,-0.407 0,-0.815 -0.393,-0.815 0,0.408 0,0.815 -0.392,0.815 -0.393,-0.407 -0.393,-0.407 -0.785,-0.815 -0.393,-1.222 -0.393,-2.037 -0.786,-2.852 -1.963,-1.63 0,-4.482 -0.785,-6.519 0,-0.408 0,-0.815 0,-1.222 0.785,0 0.393,-0.815 0.785,-1.223 0,-0.407 -0.392,-0.815 0,-0.815 -0.392,0.408 0.393,1.223 0,1.63 l 0,0 z m -6.674,-0.815 c 0,0 -0.785,0.408 -0.785,0.815 0,-0.407 0,-0.407 0,-0.815 0.392,-0.407 0.392,-0.815 0.785,-0.815 0,0 0,0.408 0,0.815 l 0,0 z m -3.533,-0.815 0,0.815 0,0 c -0.393,-0.407 0,-0.815 0,-0.815 0,-0.407 0,0 0,0 l 0,0 z m 11.385,0.815 c 0,0 -0.392,0.408 0,0.815 l 0,0 0,0 0,0 c -0.392,0 -0.392,-0.407 -0.392,-0.407 0,-0.408 0,-0.815 0.392,-1.223 0.393,0 0.393,0.408 0,0.815 l 0,0 z m -5.104,0.408 c 0,0 0.786,0 0.393,0.407 l 0,0 0,0.408 0,0 c 0,-0.408 -0.785,-0.815 -1.178,-1.223 0,0 0,-0.407 -0.392,-0.815 0.392,0.408 1.177,0.408 1.177,1.223 l 0,0 z m -1.177,-1.223 c 0.392,0.815 -1.179,0.815 -0.786,1.63 0,0 -0.393,-0.407 -0.393,-0.407 0,0 0,-0.408 0.393,-0.408 0,0 0,0 0.393,-0.407 0,0 0,-0.408 0.393,-0.408 l 0,0 z m -6.675,1.223 c 0,0.407 -0.393,0.407 -0.393,0.407 -0.392,0 0,-0.407 0,-0.407 -0.392,-0.408 -0.785,-0.408 -0.392,-0.815 0,0 0.392,0.407 0.785,0.815 l 0,0 z m 1.571,-0.408 c -0.393,0 0,0.408 -0.393,0.408 0,-0.408 0,-0.815 -0.393,-0.815 l 0,0 0,0 0,0 c 0.393,0 0.786,0 0.786,0.407 l 0,0 z m 9.029,0 c -0.392,0.408 0,0.408 -0.392,0.408 0,0 -0.785,-0.408 -0.393,-0.815 0.393,0.407 0.393,0.407 0.785,0.407 l 0,0 z m 3.141,0.408 c 0,0.407 -0.785,0.815 -0.392,1.222 l 0,0 0,0 0,0 c -0.393,-0.407 -0.393,-0.815 -0.393,-0.815 0.393,-0.407 0.393,-1.222 0.785,-0.407 l 0,0 z m -9.815,0.815 0,0 0,0 c -0.392,-0.408 0,-0.815 0,-1.223 0,0.408 0,0.815 0,1.223 l 0,0 z m 7.067,-0.815 c 0,0 0,0 0,0.407 0,-0.407 0,-0.407 0,-0.815 0,0 0,0.408 0,0.408 l 0,0 z m -9.03,0.407 c -0.392,0 -0.392,-0.407 -0.392,-0.815 0,0.408 0.392,0.408 0.392,0.815 l 0,0 z m 1.571,-0.407 c -0.393,0.407 -0.393,0.407 -0.393,0.407 0,0 0,-0.407 0,-0.815 0.393,0 0.393,0.408 0.393,0.408 l 0,0 z m -1.178,0.815 c 0,-0.408 0,-0.815 0,-0.815 l 0,0 0,0 0,0 c 0,0 0.392,0.407 0,0.815 l 0,0 z m 5.496,-0.408 c 0,0.408 0,0.815 0,0.815 0.393,0 0.393,0 0.393,0 0,0.407 0,0.815 -0.393,0.815 0,-0.408 0,-0.815 -0.392,-0.815 -0.393,-0.407 0,-0.815 -0.393,-1.222 -0.392,0.407 -1.178,0.815 -0.785,1.629 0,-0.407 0,0 0,0 -0.393,-0.407 -0.393,-0.407 -0.393,-0.814 0.393,-0.408 0.393,-0.815 0.786,-0.815 0.392,0 0.785,0.407 1.177,0.407 l 0,0 z m -6.674,0.408 c -0.393,0.407 -0.393,0.407 -0.393,0.407 0.393,-0.815 -0.785,-0.815 -0.392,-1.222 0.392,0.407 0.785,0.407 0.785,0.815 l 0,0 z m 3.926,-0.815 c 0.392,0.407 -0.785,0.815 -0.393,1.222 0.393,0 0.393,-0.407 0.785,-0.407 0.393,0.814 -0.785,0.814 -0.392,1.629 0,0 0,-0.407 0,-0.407 l 0,0 0.392,0.407 0,0 c -0.392,0 -0.785,0 -0.785,0 -0.392,0 0,-0.407 0,-0.815 0,-0.407 -0.785,-0.407 -0.392,-0.814 0.392,-0.408 0.392,-0.815 0.785,-0.815 l 0,0 z m 3.926,0.407 c -0.392,0.408 0.785,0.815 0,1.222 0,-0.407 -0.392,-0.814 -0.392,-1.222 0,-0.407 -0.393,-0.407 0,-0.407 0,0 0.392,0 0.392,0.407 l 0,0 z m 5.496,0 c -0.392,0.408 -0.392,0.815 -0.392,1.222 l 0,0 0,0 0,0 0,0 c -0.785,-0.407 0,-1.222 0,-1.629 0.392,0 0.392,0.407 0.392,0.407 l 0,0 z m -14.919,0.815 c -0.392,0 -0.392,0.407 -0.392,0 -0.393,0 0,0 0,-0.407 -0.393,-0.408 -0.785,-0.408 -0.393,-0.815 0,0.407 0.785,0.407 0.785,1.222 l 0,0 z m 12.564,-0.815 c 0,0.408 0,0.815 0,0.815 l 0,0 0,0.407 0,0 c 0,0 0,-0.407 -0.393,-0.407 0.393,-0.407 0.393,-0.815 0.393,-1.222 0,0 0.393,0.407 0,0.407 l 0,0 z m -1.963,0.815 c 0,0 -0.393,0 -0.393,0.407 -0.392,-0.407 -0.392,-0.407 -0.392,-0.814 l 0,0 0.392,0.407 0,0 c 0.393,0 -0.392,-0.407 0,-0.815 0.393,0 0.393,0.408 0.393,0.815 l 0,0 z m -8.637,0.407 c 0,0 0,0 -0.393,0 0,-0.407 0.393,-0.814 0.393,-0.814 0,0 0,0.407 0,0.814 l 0,0 z m 9.029,-0.407 c 0,0 0,0 0,0.407 l 0,0 0,0 0,0 c -0.392,-0.407 0,-0.814 0,-0.814 0,0 0.393,0.407 0,0.407 l 0,0 z m -6.674,-0.407 c 0,0.407 0,0.814 0,0.814 0,0.408 0,0 0,0 0,-0.407 0,-0.814 0,-0.814 l 0,0 z m -0.392,0 c 0,0.407 0,0.407 -0.393,0.814 0,-0.407 0,-0.407 0,-0.814 0,0 0.393,0 0.393,0 l 0,0 z m -3.141,0.814 0,0.408 0,0 c -0.393,0 0,-0.408 -0.393,-0.408 0.393,0 0,-0.407 0,-0.814 0.393,0.407 0.785,0.407 0.393,0.814 l 0,0 z m 1.963,0 c 0.785,0.815 0,1.63 0.392,2.038 l 0,0 0,0 0,0 c 0.393,-0.408 0,-1.223 0.393,-1.223 0.393,0.815 0,1.63 0,2.445 l 0,0 0,0 0,0 c 0,-0.407 0,-1.222 -0.393,-0.815 0,1.222 0.786,2.852 0,4.075 0,0.407 -0.392,0.407 -0.392,0.815 0,0 0,-0.408 0,-0.408 -0.393,0.815 -0.393,2.037 -1.178,2.852 0,0.408 0,0.408 0.393,0.408 0,0 0,0 0,0 0,0.407 -0.786,0 -1.178,0.407 l 0,0 -0.393,0.408 0,-1.63 0,0 c 0.393,0 1.178,0.407 1.178,0 0.393,-0.408 0.393,-0.815 0.393,-0.815 -0.393,0 -0.393,0.407 -0.393,0.407 l 0,0 0,-0.814 0,0 c -0.393,0.407 -0.393,0.407 -0.393,0.814 l 0,0 -0.392,0 0,0 c 0.392,-0.407 0.392,-0.814 0.392,-1.222 l 0,0 -0.392,0 0,0 c 0.392,-1.63 0.785,-3.667 0.392,-5.297 0,0 0,0 0,0 0,0.408 0,1.63 -0.392,2.445 0,-1.223 -0.393,-2.445 0,-3.26 0,0 0,0.408 0.392,0.815 0,-0.407 -0.392,-1.63 0.393,-1.222 0,-0.815 0.785,-0.815 0.785,-1.63 l 0,0 0,-0.407 0,0 c 0.393,0.407 0,0.814 0.393,0.814 l 0,0 z m 5.104,0.408 c 0,0 0,0.407 0.392,0.407 -0.392,0 -0.785,0 -0.785,-0.407 0,-0.408 0,-0.408 0,-0.815 -0.392,0.407 -0.785,0.815 -0.785,1.222 -0.393,0.408 -0.393,0 -0.393,0 0,-0.407 0,-0.407 0,-0.815 0.786,0.408 0.393,-0.407 0.786,-0.407 0.392,0.407 1.177,0.407 0.785,0.815 l 0,0 z m -4.319,-0.408 c -0.393,0 -0.393,0 -0.393,-0.407 l 0,0 0,0 0,0 c 0,0 0,0.407 0.393,0.407 l 0,0 z m 9.815,0.408 c 0,0 0.393,0 0.393,0 l 0,0 0.392,0 0,0 c 0,0 -0.785,0.815 0,0.815 -0.392,0.407 -0.392,0 -0.785,-0.408 l 0,0 0.393,0 0,0 c -0.393,0 -0.785,0 -0.785,0 -0.393,-0.407 0,-0.815 0,-0.815 l 0,0 0.392,-0.407 0,0 c 0,0.407 -0.785,0.815 0,0.815 l 0,0 z m -1.178,-0.408 0,0 0,0 c 0,0 -0.392,0 -0.392,0 l 0,0 0,-0.407 0,0 c 0.392,0 0.392,0 0.392,0.407 l 0,0 z m -10.6,0.408 c 0,0 -0.393,0 -0.393,0.407 -0.392,-0.407 0,-0.407 0,-0.815 0.393,0 0,0.408 0.393,0.408 l 0,0 z m -1.178,0 c 0,0.407 0,0.407 0,0.407 l 0,0 -0.393,0 0,0 c 0,0 0,-0.407 0,-0.815 0.393,0 0.393,0.408 0.393,0.408 l 0,0 z m 9.815,0 c 0.785,2.445 -1.177,4.889 0.393,7.334 0,0.408 0,0.815 -0.393,1.222 0.393,0.408 0.785,0 0.785,0.408 0,0.407 0,0.407 0,0.815 -0.392,-0.408 -0.392,-1.223 -0.785,-1.223 0,-0.814 -0.392,-1.629 -0.785,-2.444 l 0,0 0,0.407 0,0 c 0,0.815 0.393,1.63 0,2.445 0,0.407 0.393,0.815 0,1.222 0,0 0,-0.815 -0.392,-0.815 0,0.408 0,0.815 0,0.815 -0.393,-0.407 0,-0.815 0,-1.222 0,0 0.392,0 0.392,0 -0.392,-1.63 0,-2.852 0,-4.075 -0.392,0 0,0.408 -0.392,0.815 -0.393,0.815 0,2.038 -0.393,3.26 0,-0.408 0,-0.408 0,-0.815 -0.393,-1.222 0.393,-2.445 0.393,-3.667 l 0,0 0,-3.26 0,0 c 0,0 0,-0.407 0,-0.407 0.785,0 0.785,-1.63 1.177,-0.815 l 0,0 z m 2.356,0 c 0,0 0,0 0,0.407 0,0 -0.393,-0.407 -0.393,-0.407 0,-0.408 0.393,-0.408 0.393,0 l 0,0 z m -3.141,0 c 0,0 -0.392,0 -0.392,0.407 l 0,0 0,0 0,0 c 0,-0.407 0,-0.407 0,-0.407 0,0 0.392,0 0.392,0 l 0,0 z m -2.355,1.222 0,0 0,0 c -0.393,-0.407 0,-0.815 0,-0.815 l 0,0 0,0 0,0 c 0.392,0 0.392,0.408 0,0.815 l 0,0 z m -1.964,-0.407 c 0.393,0.815 0,2.037 0,2.852 0.393,0.815 0.393,1.63 0.785,2.037 l 0,0 0,0.408 -0.392,0 0,0 c 0,0.407 0.392,1.222 0,1.63 l 0,0 0,-0.815 0,0 c -0.393,0.407 0,0.815 -0.393,0.815 0,0 0,-0.408 -0.392,-0.408 0,0.408 0,1.222 -0.393,1.63 l 0,0 0,1.222 0,0 0,0 c 0,0 0,-0.407 0,-0.407 0,-0.408 0,-0.815 0,-0.815 0,-0.408 0.393,-0.408 0.393,-0.815 0,-0.407 0,-0.407 0,-0.815 -0.393,0.408 -0.393,0.815 -0.393,0.815 0,0 0,0.407 0,0 0,0 0,0 0,0 l 0,0 0,-3.667 0,0 c -0.392,-1.223 -0.392,-2.852 -0.392,-4.075 0.392,0 0.785,0 1.177,0.408 l 0,0 z m 5.889,0.815 c 0,1.222 0,2.445 -0.392,3.667 -0.393,-1.63 0.392,-3.26 0.392,-4.89 0.393,0.408 0,0.815 0,1.223 l 0,0 z m 2.356,-0.815 0,0 -0.392,0 0,0 c 0,0 0.392,-0.408 0.392,0 l 0,0 z m -7.067,0.407 c 0,0 0,0.408 0,0.408 0,1.222 0,2.852 -0.393,3.667 0,-1.222 -0.392,-2.445 -0.392,-3.667 0,-0.408 0,-0.815 0.392,-0.815 l 0,0 0.393,0.407 z m 1.963,-0.407 c 0,0 -0.392,0 -0.392,0 0,0 0.392,0 0.392,0 l 0,0 z m 0.393,0.407 c 0,0.815 0.393,2.445 0,3.26 -0.393,-0.815 -0.393,-2.037 -0.393,-2.852 -0.392,-0.408 0,-0.408 0.393,-0.408 l 0,0 z m -0.785,1.223 c -0.785,2.037 1.178,4.074 0,6.111 0,0.815 0.392,0.815 0.392,1.63 -0.392,0 -1.177,0 -1.57,-0.407 -0.393,-0.408 0,-0.815 -0.393,-1.223 0.393,-1.222 0,-2.444 0.393,-3.667 0,-0.814 0,-1.63 0,-2.444 -0.393,-0.408 0.393,-0.408 0.393,-0.408 0.392,0 0.785,0 0.785,0.408 l 0,0 z m -5.497,4.482 c 0,-1.223 0.393,-2.038 0.393,-3.26 l 0,0 0,-1.63 0,0 c 0.392,1.63 0,3.26 -0.393,4.89 l 0,0 z m 1.571,-2.038 c -0.393,1.223 0.785,3.26 -0.393,3.667 -0.393,-0.407 0,-0.814 0,-1.222 0,-0.815 0.393,-1.63 0.393,-2.852 0,0 0,0.407 0,0.407 l 0,0 z m 7.459,1.63 c 0,0.408 0,1.223 0,2.037 -0.785,0 -0.393,-0.814 -0.393,-1.629 -0.392,-0.408 0,-0.815 0,-1.223 0.393,0 0,0.408 0.393,0.815 l 0,0 z m -8.245,0.815 c -0.392,0 0,-0.407 0,-0.815 0,0.408 0,0.815 0,0.815 l 0,0 z m 9.03,0.815 c -0.392,0 -0.392,-0.407 -0.392,-0.407 l 0,0 0,-0.815 0,0 c 0.392,0.407 0,0.815 0.392,1.222 l 0,0 z m -5.889,-1.222 c 0,0.407 0,0.407 0,0.815 0,0 -0.393,-0.408 -0.393,-0.815 l 0,0 0.393,0 z m -0.393,2.037 c 0,0 0,0.407 0,0.407 0,0 0.393,0 0.393,0.408 0,0 0,0.407 0,0.407 0,-0.407 0,-0.407 0,-0.407 l 0,0 -0.393,0 0,0 c 0,0 0,0 0,0 -0.392,0 -0.392,0 -0.392,0 l 0,0 0,0.407 0,0 c 0,-0.407 0,-0.407 0,-0.815 0,0 0,-0.407 -0.393,-0.407 0,0 -0.392,0.407 -0.392,0.407 0.392,0.408 0.392,0.408 0.392,0.408 0,0 0,-0.408 -0.392,0 -0.393,0 0,0.407 0,0.407 -0.393,-0.407 -0.393,-0.815 0,-1.222 0,0 0,0 0,-0.408 0.392,0 0.392,0.408 0.392,0 0,0 0.393,-0.407 0.393,-0.407 0.392,0 -0.393,0.815 0.392,0.815 l 0,0 z m 5.104,-0.408 c 0,0 -0.392,0 -0.392,0 l 0,0 0,-0.407 0,0 c 0.392,0 0.392,0.407 0.392,0.407 l 0,0 z m -8.244,-0.407 c 0.392,0.407 0,0.407 0,0.407 l 0,0 0,-0.407 0,0 z m 9.422,0.407 0,0.408 -0.392,-0.408 0,0 c 0,0 0.392,0 0.392,0 l 0,0 z m -8.244,0 c 0,0.408 -0.393,0.815 -0.393,1.223 -0.393,0 -0.393,-0.408 -0.393,0 -0.392,0 0,0 -0.392,0.407 0,0 0,-0.407 0,-0.407 0.392,-0.408 0.785,-0.408 0.785,-1.223 0,0 0.393,0 0.393,0 l 0,0 z m 8.244,1.223 0,0.407 0,0 c 0,-0.407 0,-0.407 0,-0.407 -0.392,0 0,0.815 -0.392,0.407 0,-0.815 -0.393,-0.815 -0.393,-1.63 0.393,0.408 0.393,1.223 0.785,1.223 l 0,0 z m 3.926,-0.815 c -0.392,0.407 0,0.407 0.393,0.815 0,0 0.393,0 0.393,0.407 -0.393,0 -0.393,-0.407 -0.393,-0.407 0,0 -0.393,0.407 -0.393,0.407 l 0,0 0,0 0,0 c -0.392,-0.407 -0.392,-1.222 -0.785,-1.63 0.393,0 0.393,0.408 0.785,0.408 l 0,0 z m -16.489,-0.408 c 0,0.815 -0.393,1.223 -0.393,1.63 -0.392,0 -0.392,0 -0.392,-0.407 0.392,0 0.392,-0.408 0.392,-1.223 l 0,0 0.393,0 z m 3.533,0.408 c 0.393,0.407 -0.392,0.407 -0.392,0.407 -0.393,0 0,0 0,0 0,0 0.392,-0.407 0.392,-0.407 l 0,0 z m 7.067,0 c 0,0 -0.392,0.407 0,0.407 0,0 0.393,0 0.393,0.408 0,0 0,0 0,0.407 -0.393,-0.407 0,-0.407 -0.393,-0.815 0,0 0,0 0,0.408 l 0,0 0,0.407 0,0 c -0.392,0 -0.392,-0.407 -0.392,-0.815 0,0 0,-0.407 0.392,-0.407 0,0 0,0 0,0 l 0,0 z m -10.208,0 c 0.393,0.407 -0.392,0.815 0,1.63 -0.392,0 -0.392,0 -0.392,0 l 0,0 0,-0.408 -0.393,0 0,-0.407 0.393,0 0,0 c 0.392,0 0,-0.815 0.392,-0.815 l 0,0 z m 15.312,0 c 0.393,0.407 0,0.815 0.393,0.815 -0.393,0 -1.178,-0.408 -1.178,-0.815 0.392,0 0.785,0 0.785,0 l 0,0 z m -2.355,0.815 c 0,0 0,0.407 -0.393,0.407 0,0 0,-0.407 0,-0.815 0,0 0.393,0.408 0.393,0.408 l 0,0 z m -1.571,0 c 0,0 0,0 0,0 0,0 0,0 -0.393,0 l 0,0 0.393,-0.408 0,0 c 0,0 0,0 0,0.408 l 0,0 z m -7.459,-0.408 c -0.393,0.408 0.392,1.223 -0.393,0.815 0,-0.407 0,-0.815 0.393,-0.815 l 0,0 z m -3.534,0.408 c 0,0.407 -0.393,0.407 0,0.407 l 0,0 -0.393,0 0,-0.407 0.393,0 z m -1.57,0.407 0,0 0,0 0,0 0,0 z m 0.392,0.408 c -0.392,0 -0.392,0 -0.392,0 0,0 0,0 0,-0.408 0.392,0.408 0.392,0.408 0.392,0.408 l 0,0 z m 16.49,0 -0.393,0 0,-0.408 0.393,0 0,0.408 z m 0.392,-0.408 c 0,0.408 0,0.408 0,0.408 l 0,0 0,-0.408 0,0 c 0,0 0,0 0,0 l 0,0 z m -5.496,2.038 c 0.785,0.814 0.785,2.037 0.785,2.852 -0.393,1.63 -1.57,2.444 -2.748,2.852 -1.57,0.407 -3.141,-0.408 -3.926,-1.63 -0.393,-1.222 -0.393,-2.852 -0.393,-3.667 0.785,-1.223 1.57,-2.037 2.749,-2.037 1.177,-0.408 2.748,0 3.533,1.63 l 0,0 z m -6.282,-1.63 c 0,0 -0.392,0.407 -0.392,0.407 l 0,0 -0.393,0 0,0 c 0,-0.407 0.393,-0.407 0.785,-0.407 l 0,0 z m 0.393,0 c -0.393,0 -0.393,0.407 -0.393,0.407 0,0 0,0 0,0 0,-0.407 0,-0.407 0.393,-0.407 l 0,0 z m 0.785,0 c -0.393,0 -0.393,0.814 -0.785,0.407 0,0 0.392,-0.407 0.392,-0.407 0,0 0.393,0 0.393,0 l 0,0 z m 5.496,0.407 c 0,0 0,0 0,0 -0.392,0 -0.392,-0.407 -0.392,-0.407 0,0 0.392,0 0.392,0.407 l 0,0 z m 0.786,0 0,0 0,0 c -0.393,0.407 -0.393,-0.407 -0.786,-0.407 0.393,0 0.786,0 0.786,0.407 l 0,0 z m -8.638,-0.407 c 0,0 0.393,0.407 0,0.407 0,0.407 -0.392,0 -0.392,0 0,0 0.392,-0.407 0.392,-0.407 l 0,0 z m 7.46,0.407 0,0 0,0 c -0.393,0.407 -0.393,-0.407 -0.785,-0.407 0.392,0 0.392,0 0.785,0.407 l 0,0 z m 1.57,0 0.393,-0.407 0,0.407 0,0 c 0,0 -0.393,0 -0.393,0 l 0,0 -0.392,-0.407 0,0 c 0.392,0 0.392,0 0.392,0.407 l 0,0 z m 1.178,0 0,0 0,0 c -0.392,0.407 -0.392,-0.407 -0.785,-0.407 0.393,0 0.785,0 0.785,0.407 l 0,0 z m 0.393,0 0,0 0,0 c -0.393,0.407 0,-0.407 -0.393,-0.407 0,0 0.393,0 0.393,0.407 l 0,0 z m -11.386,-0.407 c 0.393,0 0,0.407 0,0.407 0,0.407 0,0 -0.392,0.407 0,-0.407 0,-0.407 0,-0.407 0.392,-0.407 0.392,-0.407 0.392,-0.407 l 0,0 z m 12.171,0.407 c 0,0.407 0,0 -0.393,0 0,0 0,-0.407 0,-0.407 0,0 0.393,0.407 0.393,0.407 l 0,0 z m 0.785,0 c -0.393,0.407 -0.393,0 -0.785,-0.407 0,0 0.392,0 0.392,0 0,0.407 0.393,0.407 0.393,0.407 l 0,0 z m -14.134,-0.407 c 0,0.407 0,0.407 -0.392,0.814 l 0,0 0,0 0,0 c 0,-0.407 0,-0.814 0.392,-0.814 l 0,0 z m 0.786,0 c 0,0.407 -0.393,0.407 -0.393,0.814 l 0,0 0,0 0,0 c -0.393,-0.407 0,-0.814 0.393,-0.814 l 0,0 z m -1.571,0 c 0.393,0.407 0,0.407 0,0.814 l 0,0 0,0 0,0 c -0.393,-0.407 0,-0.407 0,-0.814 l 0,0 z m 15.312,0.407 c 0,0.407 0,0.407 0,0.407 l 0,0 -0.393,-0.814 0,0 c 0.393,0 0.393,0.407 0.393,0.407 l 0,0 z m -5.104,1.63 c 0.785,0.815 0.392,2.445 0,3.26 -0.785,1.222 -2.356,1.629 -3.533,1.629 -0.393,0 -0.786,-0.407 -1.571,-0.814 -0.785,-0.815 -1.178,-2.038 -0.785,-3.668 0,-0.814 1.177,-1.63 1.963,-2.037 1.57,-0.407 3.141,0 3.926,1.63 l 0,0 z m -10.601,-1.63 c 0,0 0,0 0,0 l 0,0 0,0 0,0 c 0,0 0,0 0,0 l 0,0 z m 16.097,0 0,0.407 0,-0.407 0,0 0,0 c 0,0 0,0 0,0 l 0,0 z m -16.882,0.407 c 0,-0.407 0,-0.407 0,-0.407 l 0,0 0,0.407 0,0 z m 17.668,-0.407 0,0.407 0,0 c -0.393,0 -0.393,-0.407 -0.393,-0.407 0,0 0,0 0.393,0 l 0,0 z m -8.638,0 -0.392,2.445 0,-2.445 0,0 c 0,0.407 0.392,0 0.392,0 l 0,0 z m -9.422,0.407 c 0,0 0,0 0,0 l 0,0 0,0 0,-0.407 0,0 c 0,0 0,0 0,0.407 l 0,0 z m 8.637,2.038 c 0,-0.815 -0.392,-1.63 -0.392,-2.445 l 0,0 0.392,0 0,2.445 z m 1.571,-2.038 c -0.393,0.816 -0.786,1.223 -0.786,2.038 0,-0.815 0,-1.63 0.393,-2.445 0,0.407 0.393,0.407 0.393,0.407 l 0,0 z m -10.601,0 c 0,0 0,0 0,0 l 0,0 0,0 0,0 c -0.392,0 0,0 0,0 0,0 0,0 0,0 l 0,0 z m 8.245,0 c 0.393,0.408 0.393,1.223 0.785,2.038 l 0,0 0,0 0,0 c -0.392,-0.815 -0.785,-1.63 -1.178,-2.038 0,0 0.393,0 0.393,0 l 0,0 z m 5.889,0.816 c 0.393,0 0.393,-0.408 0.393,-0.408 l 0,0 0,-0.408 0,0 c 0.392,0 0,0.408 0.392,0.408 0.393,0.408 0,0.408 0.393,0.815 -0.393,0.407 -0.393,0.407 -0.785,0.815 l 0,0 0,0 0,0 c -0.393,0 0,0.407 -0.393,0.407 0,0 -0.393,0.408 -0.393,0 0,0 0.393,0 0.393,-0.407 -0.393,0 -0.393,0.407 -0.785,0 l 0,0 0.392,0 0,0 c 0,-0.408 -0.392,-0.815 0,-1.222 0.393,-0.408 -0.392,-0.816 0,-0.816 0.393,0 0,0.408 0.393,0.816 l 0,0 z m -0.785,-0.816 c 0.392,0.408 0,0.816 0,1.63 -0.393,0 -0.393,-0.814 -0.786,-1.222 l 0,0 -0.392,-0.408 0,0 c 0.392,0 0.785,0 1.178,0 l 0,0 z m -10.993,0.408 c -0.393,0.408 0,0.815 0,0.815 0.392,0.407 0.392,0.815 0.392,1.63 0.393,0.407 1.178,-0.408 1.571,0 0.392,0 0.785,0.407 0.785,0 0,-1.223 0.393,-2.037 0.785,-2.445 l 0,0 0,0 0,0 c 0,0.408 -0.392,0.408 0,0.815 -0.392,0.407 0,1.222 -0.392,1.63 0,0.407 -0.786,0 -1.178,0.407 0.392,0.408 0.392,0.815 0.392,1.223 0.393,0 0,0 0,0.407 -0.392,0 -1.177,-0.407 -1.57,-0.815 0,0.815 -0.785,0 -1.178,0 0,0 0,0 0,-0.407 0,0.407 0,0.815 -0.393,1.222 -0.392,0 -0.785,0 -0.785,0.408 -0.392,0.407 0.393,0.407 0.785,0.814 -0.392,0.408 -0.785,0 -0.785,0 -0.392,-0.407 -0.392,-0.814 -0.392,-1.222 0.392,-0.407 1.177,-0.407 0.785,-0.815 -0.393,-0.407 0.392,-0.815 0,-1.222 0,-0.815 0,-1.223 0,-1.63 l 0,0 -0.393,0 0,0 c 0.393,0 0,0.815 0,0.815 -0.392,0 -0.392,-0.408 0,-0.408 0,-0.814 0,-1.63 0.785,-1.63 0.393,0 0.393,0.408 0.786,0.408 l 0,0 z m 3.533,-0.408 c 0,0.408 -0.392,0.816 -0.785,1.223 -0.393,0.407 0,0.815 -0.393,1.63 -0.392,-0.815 -1.57,0.407 -1.57,-0.815 -0.393,-0.815 -0.785,-1.222 -0.785,-2.038 1.178,0 2.355,0 3.533,0 l 0,0 z m 2.749,2.038 c -0.393,-0.408 -0.786,-1.222 -1.571,-1.63 0.392,0 0.392,-0.408 0.392,-0.408 0.393,0.816 0.786,1.223 1.179,2.038 l 0,0 z m 2.748,-1.63 c -0.785,0.408 -1.178,0.815 -1.571,1.63 l 0,0 0,0 0,0 c 0.393,-0.815 0.786,-1.222 1.178,-2.038 0,0.408 0.393,0.408 0.393,0.408 l 0,0 z m 3.141,-0.408 c 0,0 0,0.408 -0.393,0.408 l 0,0 0,0 0,-0.408 0,0 c 0,0 0,0 0.393,0 l 0,0 z m 1.962,0.408 0.393,0 0,0 c 0,0.408 0,0 -0.393,0.408 0,0 0.393,0 0.393,0 0.393,0.814 0.393,1.222 0.393,1.629 l 0,0 -0.786,0 0,0 c 0,0 0,-0.407 0,-0.407 0,0 0,-0.408 -0.392,-0.408 0,-0.407 -0.785,0 -0.785,-0.814 0,-0.408 -0.393,-0.408 0,-0.408 l 0,0 -0.393,-0.408 0,0 c 0.785,0 1.57,0 1.57,0.408 l 0,0 z m 2.749,1.63 c 0,1.222 0,2.037 -0.393,3.26 0,0 0,0.407 0,0.407 0,-1.63 0,-3.667 -0.392,-5.297 l 0,0 0,-0.408 0,0 c 0.392,0.816 0.392,1.63 0.785,2.038 l 0,0 z m -1.178,0 c 0.393,-0.815 0,-1.222 0,-2.038 0.785,1.63 0.785,4.075 0.393,5.705 l 0,0 0,0 0,0 c 0,-0.407 0,-1.222 0,-1.63 -0.393,0.408 -0.393,1.223 -0.393,1.63 l 0,0 0,0 0,0 c 0,-0.815 0.393,-2.037 -0.785,-2.852 l 0,0 0,-2.037 0,0 c 0,0 0,0 0.392,0 0,0.407 0,0.814 0,1.222 l 0,0 0,0 0,0 c 0.393,-0.815 0,-1.222 0,-2.038 0.393,0.408 0.393,1.223 0.393,2.038 l 0,0 z m -9.815,0 c -0.393,-0.408 -0.786,-0.815 -1.571,-0.815 l 0,0 0.393,-0.815 1.178,1.63 z m 3.533,-1.222 0,0.407 0,0 c -0.785,0 -1.177,0.407 -1.963,0.815 l 0,0 1.571,-1.63 0,0 c 0.392,0 0,0.408 0.392,0.408 l 0,0 z m -12.563,0 c 0.785,1.222 0.785,3.259 0.393,4.889 l 0,0 0,0 0,0 c 0,-1.63 0,-3.26 -0.393,-4.889 0,0 0,0 0,0 l 0,0 z m 1.178,0.407 c 0,0 0,-0.407 0,-0.407 0,0 0,0.407 0,0.407 l 0,0 z m -0.393,1.222 0.393,-0.407 -0.393,-1.222 0,0 c 0,0 0,0.407 0.393,0.407 l 0,0 0,1.222 0,0 c 0,0 0.392,0 0.392,0.408 l 0,0 0,0.815 0,0 c -1.177,0 -0.392,1.63 -0.785,2.444 l 0,0 0,0 0,0 c 0,-2.037 0,-3.667 -0.392,-5.296 l 0,0 0,0 0,0 c 0.392,0.407 0.392,1.222 0.392,1.629 l 0,0 z m 14.527,-1.629 c 0,0.407 0,0.407 -0.393,0.407 0,0 0,0 0,0 0,0 0,-0.407 0.393,-0.407 l 0,0 z m 5.103,2.444 c 0,0.408 0,0.815 0,1.223 l 0,0 -0.392,-3.26 0,0 c 0.392,0.407 0.392,1.222 0.392,2.037 l 0,0 z m -11.385,-0.815 c -0.393,0 -1.178,-0.407 -1.963,-0.407 0,-0.408 0.392,-0.408 0.392,-0.815 0.393,0.407 1.178,0.815 1.571,1.222 l 0,0 z m 3.926,-0.407 c -0.785,0 -1.57,0 -1.963,0.407 0.393,-0.407 1.178,-0.815 1.57,-1.222 l 0,0 0.393,0.815 z m 2.356,-0.815 c 0,0.407 0,0.407 0,0.407 -0.393,0 -0.393,0 0,0 0,-0.407 0,-0.407 0,-0.407 l 0,0 z m 1.57,0.407 c 0,0.408 -0.393,0.815 -0.393,1.223 0.393,0.815 -0.392,1.222 -0.392,2.445 -0.393,0.407 0.392,1.222 -0.785,0.814 0.392,0 0.392,-0.407 0.392,-0.407 0,0 0,0 0,-0.407 l 0,0 -0.392,-0.815 0,0 c 0.392,-0.408 0.392,-0.815 0.392,-1.223 -0.392,0.408 -0.392,0.815 -0.392,1.223 -0.393,-0.408 0,-0.408 0,-0.815 -0.393,0.407 -0.393,0.407 -0.393,0.407 -0.393,-0.407 0.393,-0.407 0.393,-0.815 0,0 0,-0.407 0.392,-0.407 -0.392,0 0,-0.408 -0.392,-0.408 l 0,0 0,0 0,0 c 0,-0.407 0.785,-0.407 1.177,-0.815 0,0 0.393,0 0.393,0 l 0,0 z m -7.852,1.223 c -0.786,-0.408 -1.571,0 -1.963,0 0,-0.408 0,-0.408 0,-0.815 0.785,0.407 1.177,0.407 1.963,0.815 l 0,0 z m 3.926,-0.815 c 0,0 0,0.407 0,0.407 -0.393,0 -1.178,0 -1.963,0.408 l 0,0 0,0 0,0 c 0.785,0 1.57,0 2.355,0 0,0 -0.392,0.407 -0.392,0.407 -0.393,0 -1.178,-0.407 -1.963,-0.407 0,0 0,0 0,-0.408 0.785,0 1.57,0 1.963,-0.407 l 0,0 z m -2.356,0.407 c 0.393,0.408 0,0.815 -0.392,1.223 -0.393,0 -0.785,-0.408 -0.785,-0.408 0,-0.407 0,-0.407 0,-0.815 0,0 0.392,-0.407 0.392,-0.407 0.393,0 0.785,0 0.785,0.407 l 0,0 z m -10.6,2.038 c 0,-0.815 0,-1.63 0,-2.445 0,0.815 0.393,1.63 0,2.445 l 0,0 z m 10.6,-1.63 c 0,0 -0.392,0.407 -0.392,0.407 -0.393,0 -0.393,0 -0.393,-0.407 -0.392,0 0,-0.408 0,-0.408 0.393,-0.407 0.393,0 0.785,0.408 l 0,0 z m 10.208,0 0,0 0,-0.408 0,0 c 0,0 0,0.408 0,0.408 l 0,0 z m -6.674,0 0,0 0,-0.408 0,0 0,0.408 z m 4.318,0.815 c 0,0.815 -0.785,1.222 -1.178,2.444 0,0 0,0 0,0 l 0,0 -0.392,0 0,0 c 0,-0.814 1.178,-1.222 0.785,-2.037 -0.393,0.408 -0.785,0.408 -1.178,0.408 0,-0.408 0.393,-0.815 0.393,-1.223 0.392,-0.407 0.785,-0.407 1.178,-0.407 0,0.407 0.392,0.407 0.392,0.815 l 0,0 z m -3.533,-0.815 c 0,0 -0.393,0 -0.393,0 0,0 0,0 0.393,0 l 0,0 z m -15.312,0.815 c -0.392,0 0,-0.408 0,-0.815 0,0.407 0,0.815 0,0.815 l 0,0 z m 9.423,-0.815 c -0.393,0.407 -0.786,0.407 -1.178,0.407 l 0,0 -0.785,0.408 0,0 c 0,-0.408 0,-0.408 0,-0.815 0.785,0.407 1.57,0 1.963,0 l 0,0 z m 5.104,0.407 c 0,0.815 1.178,1.223 0.392,2.038 0,0.407 -0.392,0.407 -0.392,0.814 -0.393,0.408 -1.178,0 -1.571,0.408 0,-0.408 0,-0.815 0.393,-0.815 0,-0.407 0.392,-0.815 0.785,-0.815 0,-0.815 0.393,-1.222 0.393,-2.037 0.392,0.407 0,0.407 0,0.407 l 0,0 z m 0.785,0.408 -0.393,0 0.786,-0.815 0,0 c 0,0.407 -0.393,0.407 -0.393,0.815 l 0,0 z m 0.393,0 0.392,-0.815 0,0 -0.392,0.815 z m -3.141,0 0,-0.408 0.392,0.408 0,0 c 0,-0.408 0.393,0 0.393,0 0,0 -0.393,0.407 0,0.407 -0.785,-0.407 -1.178,-0.815 -1.963,-0.815 l 0,0 0,0 0,0 c 0.393,0 0.785,0 1.178,0.408 l 0,0 z m 2.748,-0.408 c 0,0 -0.393,0 -0.393,0 l 0,0 0.393,0 0,0 z m -5.889,0 c -0.393,0.408 -1.178,0.815 -1.571,1.223 0,-0.408 0,-0.815 -0.392,-0.815 0.392,0 1.177,0 1.57,-0.408 0,0 0.393,0 0.393,0 l 0,0 z m 3.533,1.223 c 0,0 0,0 0,0.407 -0.392,-0.407 -1.177,-1.222 -1.57,-1.63 0.393,0.408 1.178,0.815 1.57,1.223 l 0,0 z m -6.281,-1.223 c 0,0 0,0.408 0,0.408 0,0 0,0 0.392,0 0,0 -0.392,0 -0.392,0.407 0.392,0 0.392,0.408 0.392,0.408 0,0 -0.392,0 -0.392,0 0.392,0 0.392,0 0.392,0 -0.392,-0.408 -0.392,0 -0.392,0 l 0,0 -0.393,-0.408 0,0 c 0.393,0 0,0 0,0 0,-0.407 0,-0.407 0,-0.407 l 0,0 0,0 0,0 c 0,0 0,-0.408 0,0 0,-0.408 0.393,-0.408 0.393,-0.408 l 0,0 z m 3.141,0.408 c -0.786,0.407 -1.179,0.815 -1.571,1.222 0,0 -0.393,0 -0.393,-0.407 0.393,-0.408 1.178,-0.815 1.964,-1.223 l 0,0 0,0.408 z m 1.57,0.407 c 0.393,0 0.785,0.815 1.178,0.815 0.392,0.408 -0.393,0 -0.393,0.408 -0.392,-0.408 -0.785,-1.223 -1.178,-1.63 l 0,0 0,-0.408 0,0 c 0.393,0.408 0.393,0.408 0.393,0.815 l 0,0 z m -1.57,-0.407 c -0.393,0.407 -0.393,1.222 -0.786,2.037 0,-0.407 -0.393,-0.407 -0.393,-0.407 0.393,-0.815 0.786,-1.223 1.179,-1.63 l 0,0 0,0 z m 1.57,0.815 c 0.393,0.407 0.393,0.815 0.785,0.815 -0.392,0.407 -0.392,0.407 -0.392,0.407 l 0,0 -0.393,0 0,0 c 0,-0.815 0,-1.222 -0.393,-2.037 l 0,0 0,0 0,0 c 0.393,0 0,0.815 0.393,0.815 l 0,0 z m -1.57,1.222 0,0.407 0,0 c -0.393,-0.407 -0.393,-0.407 -0.786,-0.407 0.393,-0.815 0.786,-1.222 1.178,-2.037 0,0.815 -0.392,1.222 -0.392,2.037 l 0,0 z m 0.785,0.407 c -0.393,0 -0.393,-0.407 -0.785,-0.407 0.392,-0.407 0.392,-1.222 0.392,-2.037 0,0.815 0.393,1.63 0.393,2.444 l 0,0 z m 0.392,-1.629 -0.392,0 0,0 c 0.392,0.407 0.392,0.815 0.785,1.222 0,0 -0.393,0 -0.785,0.407 l 0,0 0,0 0,0 c 0,-0.814 0.392,-1.629 0,-2.444 0,0 0,0.407 0.392,0.815 l 0,0 z m -9.03,-0.815 c 0,0.407 0,0.407 -0.392,0.407 l 0,0 0,0 0,0 c 0,0 0,0 0,0 0,0 0,-0.407 0.392,-0.407 l 0,0 z m -0.392,0.815 c 0,0.407 0,1.222 0,1.629 -0.393,-0.407 0,-0.814 0,-1.222 -0.393,-0.407 0,-0.407 0,-0.407 l 0,0 z m 2.748,0.407 0,0 0.393,0 0,0 c 0,0 0.392,0.408 0.785,0.408 0.392,0 0.392,0 0.785,0.407 0,0.815 -1.178,0.407 -1.57,0.815 l 0,0 -1.571,0 0,0 c -0.393,-0.408 -0.785,-0.815 -0.785,-1.222 0.392,0 0.785,-1.223 1.178,-0.408 l 0,0 0.785,0 z m 14.526,-0.407 c 0.393,0.407 0,0.407 0,0.815 0,0 0,-0.408 0,-0.815 l 0,0 0,0 z m -11.778,0.815 c 0,0 0,0.407 0,0.814 0,0 0,0.408 0,0 0,-0.407 -0.392,-0.814 -0.785,-1.222 0,-0.407 0.393,0 0.393,0 0.392,0 0.392,0.408 0.392,0.408 l 0,0 z m 8.638,-0.408 c 0,0.408 -0.393,0.815 -0.393,1.222 0,0 -0.393,0 -0.393,0.408 0,-0.408 0,-0.408 0,-0.408 0,-0.407 0.393,-0.814 0.393,-1.222 0,0 0,-0.407 0.393,0 l 0,0 z m 1.57,0.815 c -0.393,0 0,0.407 -0.393,0.407 0,0 0,0 0,-0.407 0,0 -0.392,0 0,-0.407 l 0,0 0,-0.408 0,0 c 0.393,0 0.785,0 0.785,0 l 0,0 -0.392,0.815 z m -9.815,-0.407 c -0.393,0 0,0.407 -0.393,0.407 0,-0.407 0,-0.407 0,-0.815 0,0 0,0.408 0.393,0.408 l 0,0 z m 11.385,0.814 c -0.392,0 -0.392,0 -0.392,0 0.392,-0.407 -0.393,-0.814 0.392,-1.222 l 0,0 0,1.222 z m -12.17,-0.407 c 0,0.407 0,0.407 0,0.407 l 0,0 -0.393,0 0,0 c 0.393,-0.407 0,-0.814 -0.393,-1.222 0.393,0.408 0.786,0.408 0.786,0.815 l 0,0 z m 11.385,0.407 c 0,0 0,-0.407 0,-0.814 0.393,0.407 0,0.407 0,0.814 l 0,0 z m -10.208,0 0,0 -0.392,0 0,0 c 0,0 0,0 0,-0.407 0,0 0,0 0.392,0 0,0 0,0.407 0,0.407 l 0,0 z m 11.386,0 0,0.408 0,0 c 0,0 0,0 0,-0.408 0,0 0,0 0,0 l 0,0 z m -0.393,0.408 c 0.393,0 0,0 0,0 l 0,0 0,0 0,-0.408 0,0 c 0,0 0,0.408 0,0.408 l 0,0 z m -0.392,0 c 0,0 0,0 0,0 l 0,0 0,0 0,0 c 0,-0.408 0,-0.408 0,0 l 0,0 z m -16.49,0 0,0 0,0 0,0 c 0,0 0,0 0,0 l 0,0 z m 0.393,0 c 0,0 0,0 0,0.407 -0.393,0 -0.393,-0.407 -0.393,-0.407 0,0 0.393,-0.408 0.393,0 l 0,0 z m 5.104,0 c 0,0 0,0.407 -0.393,0.407 0,-0.407 0,-0.407 0.393,-0.407 l 0,0 z m -4.712,0.407 0,0 0,0 c -0.392,-0.407 0,-0.407 0,-0.407 l 0,0 0,0 0,0.407 z m 0.393,-0.407 c 0.393,0 0,0.407 0,0.407 0,0 0,-0.407 0,-0.407 0,0 0,0 0,0 l 0,0 z m 0.393,0 c 0,0 0,0.407 0,0.407 0,0 0,0 0,0 0,-0.407 0,-0.815 0,-0.407 l 0,0 z m 0.785,0 c 0,0 0,0.407 0,0.407 -0.393,0 -0.393,0 -0.393,0 0,-0.407 0,-0.407 0.393,-0.407 l 0,0 z m 0.393,0 c 0.392,0 0,0.407 0,0.407 0,0 0,0 0,0 0,-0.407 0,-0.407 0,-0.407 l 0,0 z m 0.785,0.407 c -0.393,0 -0.393,0 -0.393,0 0,-0.407 0,-0.407 0,-0.407 l 0,0 0.393,0 0,0.407 z m 0.392,-0.407 c 0,0.407 0,0.407 0,0.407 0,0 -0.392,0 -0.392,0 0,-0.407 0,-0.407 0.392,-0.407 0,0 0,0 0,0 l 0,0 z m 0.393,0 c 0.393,0 0,0.407 0,0.407 0,0 0,0 0,0 0,-0.407 0,-0.407 0,-0.407 l 0,0 z m 1.57,0.407 c 0,0 0,0 -0.392,0 0,0 0.392,-0.407 0.392,-0.407 l 0,0 0,0 0,0 c 0.393,0 0,0.407 0,0.407 l 0,0 z m 8.245,0 c 0,0 0,0 0,0 0,0 -0.785,-0.407 -0.392,-0.407 0,0 0.392,0 0.392,0.407 l 0,0 z m 0.785,0 -0.392,0 -0.393,-0.407 0,0 c 0.393,0 0.393,0 0.785,0.407 l 0,0 z m 0.785,0 c -0.392,0 -0.392,-0.407 -0.392,-0.407 0,0 0.392,0 0.392,0.407 l 0,0 z m 0,-0.407 0,0.407 0,0 c 0,0 0,-0.407 0,-0.407 l 0,0 0,0 0,0 c 0,0 0.393,0 0,0 l 0,0 z m -10.6,0 c 0,0 0,0.407 -0.392,0.407 0,0 0,-0.407 0.392,-0.407 l 0,0 z m 1.57,0 c 0,0 0,0.407 0,0.407 -0.392,0 -0.392,0 -0.392,0 0,-0.407 0.392,-0.407 0.392,-0.407 l 0,0 z m 6.282,0.407 c 0,0.408 -0.392,0 -0.392,-0.407 l 0,0 0,0 0,0 c 0.392,0 0.392,0.407 0.392,0.407 l 0,0 z m 0.786,0 0,0 0,0 c -0.393,0.408 -0.393,0 -0.786,-0.407 0.393,0 0.393,0 0.786,0.407 l 0,0 z m 1.57,0 0,0 0,0 c -0.393,0 -0.393,-0.407 -0.393,-0.407 0,0 0,0 0.393,0.407 l 0,0 z m -4.711,0 c 0,0 0,0 0,0 -0.393,0.408 -0.393,0 -0.393,-0.407 0,0 0.393,0 0.393,0.407 l 0,0 z m 1.177,0 c 0,0 -0.392,0.408 -0.392,0 l 0,0 0,-0.407 0,0 c 0.392,0 0.392,0.407 0.392,0.407 l 0,0 z m 0.786,0 0,0 0,0 c -0.393,0.408 -0.393,0 -0.786,-0.407 0.393,0 0.393,0 0.786,0.407 l 0,0 z m -5.497,0 c 0,0 0,0.408 0,0 -0.393,0 0,0 0,0 0,-0.407 0,0 0,0 l 0,0 z m 3.926,0 c 0,0 0,0 0,0 0,0 0,0 0,-0.407 0,0 0,0.407 0,0.407 l 0,0 z m -0.785,0 c 0,0 0,0 -0.392,0 0,0 0,0 0,-0.407 0,0 0.392,0.407 0.392,0.407 l 0,0 z m -2.355,0 c 0,0 -0.393,0.408 -0.393,0 0,0 0,0 0,0 0,0 0.393,0 0.393,0 l 0,0 z m 1.963,0 c -0.393,0 -0.393,0.408 -0.393,0 0,0 0,0 0,0 0.393,-0.407 0,0 0.393,0 l 0,0 z m -0.786,0 c 0,0 0,0.408 -0.392,0 0,0 0,0 0,0 0.392,0 0.392,0 0.392,0 l 0,0 z m -0.392,0 c -0.393,0 0,0.408 -0.393,0 0,0.408 0,0 0,0 0,0 0,0 0.393,0 l 0,0 z m -6.282,0.408 c 0,0 0,0 0,0 l 0,0 0,0 0,0 c 0,0 0,0 0,0 l 0,0 z m 1.57,0 c 0,-0.408 0.393,0 0.393,0 0,0 0,0 0,0 0,0.407 -0.393,0 -0.785,0 0,0 0,0 -0.393,0 0.393,0 0.393,0 0.785,0 l 0,0 z m 10.208,0 c 0,0 0,0 0,0 -0.392,0 -0.392,0 -0.392,0 0.392,0 0.392,0 0.392,0 l 0,0 z m 0.785,0 c 0,0 0,0 -0.392,0 l 0,0 0,0 0,0 0.392,0 z m -11.778,0 c 0,0 -0.392,0 -0.392,0 l 0,0 0.392,0 0,0 z m 1.963,0 c 0,0 0,0.407 -0.392,0.407 0,0 0,-0.407 0,-0.407 0,0 0,0 0.392,0 l 0,0 z m 0,0 c 0.393,0 0,0.407 0,0.407 l 0,0 0,0 0,-0.407 0,0 z m 0.785,0.407 -0.392,0 0,-0.407 0.392,0 0,0.407 z m 0.785,0 -0.392,0 0,0 c -0.393,-0.407 0,-0.407 0,-0.407 0,0 0.392,0 0.392,0.407 l 0,0 z m 6.282,-0.407 c 0,0 0,0.407 0,0.407 0,0 0,-0.407 -0.392,-0.407 0.392,0 0.392,0 0.392,0 l 0,0 z m 0.786,0 c 0,0 0,0 -0.393,0 l 0,0 0,0 0,0 0,0 c 0,0 0.393,0 0.393,0 l 0,0 z m -6.675,0 c 0,0.407 0,0.407 0,0.407 l 0,0 -0.393,0 0,-0.407 0,0 c 0.393,0 0.393,0 0.393,0 l 0,0 z m 0.786,0 c 0,0.407 0,0.407 -0.393,0.407 0,0 0,0 0,-0.407 0,0 0,0 0.393,0 l 0,0 z m 0.392,0.407 c 0,0 0,0 -0.392,0 0,-0.407 0.392,-0.407 0.392,0 l 0,0 z m 0.785,-0.407 c 0,0.407 -0.392,0.407 -0.392,0.407 0,-0.407 0.392,-0.407 0.392,-0.407 l 0,0 z m 0.786,0 c 0,0.407 -0.393,0.407 -0.393,0.407 l 0,0 -0.393,0 0,-0.407 0,0 c 0.393,0 0.393,0 0.786,0 l 0,0 z m 0.392,0 0,0.407 -0.392,0 0,0 c 0,-0.407 0.392,-0.407 0.392,-0.407 l 0,0 z m 0.785,0 c 0.393,0.407 0,0.407 -0.392,0.407 l 0,0 0,0 0,-0.407 0,0 c 0,0 0.392,0 0.392,0 l 0,0 z m 0.785,0 c 0,0.407 0,0.407 -0.392,0.407 l 0,0 0,0 0,-0.407 0,0 c 0,0 0.392,0 0.392,0 l 0,0 z m 0.786,0 0,0.407 -0.393,0 0,-0.407 0,0 c 0,0 0.393,0 0.393,0 l 0,0 z m 0.785,0.407 c 0,0 0,0.407 0,0.407 0,0 0,0 -0.393,0 0,-0.407 0,-0.407 0.393,-0.407 0,0 0,0 0,0 l 0,0 z m -8.637,0.407 c 0,0 0,0 -0.393,0 0,0.408 0,0 0,0 l 0,0 0,-0.407 0,0 c 0.393,0 0,0.407 0.393,0.407 l 0,0 z m 8.244,-0.407 c 0,0.407 -0.392,0.407 -0.392,0.407 0,0 0,0 0,0 -0.393,-0.407 0.392,-0.407 0.392,-0.407 l 0,0 z m 1.571,0 c 0,0.407 0,0.407 -0.393,0.407 0,0 0,0 0,0 0,-0.407 0,-0.407 0,-0.407 0,0 0,0 0.393,0 l 0,0 z m 0.785,0.407 -0.393,0 0,-0.407 0,0 c 0.393,0 0.393,0 0.393,0.407 l 0,0 z m -12.171,0.408 c -0.392,-0.408 -0.392,-0.408 -0.392,-0.815 l 0,0 0.392,0 0,0 c 0,0.407 0,0.407 0,0.815 l 0,0 z m 0.785,-0.408 c 0,0 -0.392,0 -0.392,0 l 0,0 0,-0.407 0,0 c 0.392,0 0.392,0.407 0.392,0.407 l 0,0 z m 1.178,0 c 0,0.408 0,0 0,0 0,0 -0.392,-0.407 0,-0.407 0,0 0,0.407 0,0.407 l 0,0 z m 0.393,0 0,0 0,0 c -0.393,0.408 -0.393,0 -0.393,0 0,-0.407 0.393,-0.407 0.393,0 l 0,0 z m 0.785,-0.407 c 0,0.407 0,0.407 0,0.407 -0.393,0.408 -0.393,0 -0.393,0 0,0 0,-0.407 0,-0.407 0.393,0 0.393,0 0.393,0 l 0,0 z m 5.889,0.407 -0.393,0 0,-0.407 0.393,0 0,0.407 z m -5.104,0 c 0,0 0,0 0,0 l 0,0 -0.393,0 0,-0.407 0,0 c 0,0 0.393,0 0.393,0.407 l 0,0 z m 0.786,-0.407 c 0,0.407 0,0.407 -0.393,0.407 0,0.408 0,0 0,0 -0.393,-0.407 0,-0.407 0.393,-0.407 l 0,0 z m 0.392,0.407 c 0,0 0,0 0,0 -0.392,0 -0.392,0 -0.392,-0.407 0.392,0 0.392,0 0.392,0.407 l 0,0 z m 0.785,0 c 0,0 0,0 -0.392,0 0,0.408 0,0 0,0 0,-0.407 0,-0.407 0.392,0 l 0,0 z m 0.393,0 c 0,0 0,0 0,0 l 0,0 -0.393,0 0,-0.407 0,0 c 0.393,0 0.393,0 0.393,0.407 l 0,0 z m 0.785,0 c 0,0 0,0 0,0 -0.392,0 -0.392,0 -0.392,0 0,-0.407 0.392,-0.407 0.392,0 l 0,0 z m 0.393,0 0,0 0,-0.407 0,0 0,0.407 z m 0.785,0 0,0 -0.393,0 0,-0.407 0,0 c 0.393,0 0.393,0 0.393,0.407 l 0,0 z m -9.03,0 c 0,0 0,0 0,0 -0.393,0 -0.393,0 -0.393,-0.407 0.393,0 0.393,0.407 0.393,0.407 l 0,0 z"
           id="path272"
           style="fill:#3737c8;fill-opacity:1;stroke:none" />
      </g>
    </g>
  </g>
</svg>
